<svg width="167" height="236" viewBox="0 0 167 236" fill="none" xmlns="http://www.w3.org/2000/svg">
  <g clip-path="url(#clip0_1415_1959)">
    <path d="M103.675 73.2438C104.47 77.8883 110.978 80.3968 113.463 75.6282C114.382 73.8647 114.133 72.449 113.065 71.3065C110.233 68.3509 102.78 68.0032 103.675 73.2438Z" fill="#1A2428" />
    <path d="M107.376 186.848C106.928 186.848 106.605 186.475 106.605 186.028L106.953 173.386C106.953 172.939 107.326 172.592 107.773 172.616C108.22 172.616 108.543 172.989 108.543 173.436L108.195 186.078C108.195 186.525 107.823 186.873 107.376 186.848Z" fill="#141F23" />
    <path d="M110.481 181.607C112.071 182.601 112.021 184.116 110.382 184.985C108.742 185.879 106.109 185.805 104.494 184.811C102.904 183.818 102.954 182.303 104.593 181.409C106.233 180.515 108.866 180.589 110.481 181.583V181.607Z" fill="#253137" />
    <path d="M109.438 182.179C110.481 182.824 110.457 183.818 109.363 184.414C108.27 185.01 106.556 184.96 105.488 184.315C104.445 183.669 104.469 182.675 105.563 182.079C106.656 181.483 108.395 181.533 109.438 182.179Z" fill="#070709" />
    <path d="M107.475 183.221C107.003 183.221 106.631 182.824 106.655 182.352L110.258 62.1665C110.258 61.6946 110.655 61.322 111.127 61.3469C111.599 61.3469 111.972 61.7443 111.947 62.2162L108.345 182.402C108.345 182.874 107.947 183.246 107.475 183.221Z" fill="#253137" />
    <path d="M110.556 81.5395C109.959 81.5395 109.512 81.0427 109.537 80.4466L110.059 62.1667C110.059 61.5706 110.556 61.1235 111.152 61.1235C111.748 61.1235 112.195 61.6203 112.195 62.2164L111.674 80.4963C111.674 81.0924 111.177 81.5394 110.581 81.5146L110.556 81.5395Z" fill="#08181E" />
    <path d="M111.897 62.1669C111.897 62.4898 111.624 62.7381 111.301 62.7381C110.978 62.7381 110.729 62.4649 110.729 62.142C110.729 61.8192 111.003 61.5708 111.326 61.5708C111.649 61.5708 111.897 61.844 111.897 62.1669Z" fill="#253137" />
    <path d="M112.047 71.0834C111.575 70.4128 109.736 69.3199 109.736 69.3199C108.569 68.9474 106.184 68.6742 105.687 70.1644C105.29 71.3317 106.954 72.4245 108.022 71.9278C108.345 72.3749 109.215 72.7723 109.612 72.8965C110.432 73.1448 111.078 72.8219 111.699 72.2755C112.196 71.8285 112.444 71.6049 112.047 71.0585V71.0834Z" fill="#CA0101" />
    <path d="M112.047 80.4468C111.873 80.571 111.649 80.72 111.376 80.869C110.68 81.2168 109.786 81.4403 109.388 80.8194C108.941 80.1239 109.264 79.4782 109.811 79.0063C109.711 79.0063 109.612 79.0063 109.537 79.0063C107.376 78.6586 109.115 76.6468 110.581 75.9265C110.556 75.7775 110.531 75.6036 110.531 75.4546C110.531 73.9892 111.898 72.7971 112.866 71.8284L113.04 71.3813C113.165 71.5055 113.289 71.6546 113.388 71.8036C113.935 72.5487 114.158 73.5173 114.109 74.4363C114.034 75.3552 113.711 76.2245 113.487 77.1187C113.388 77.4415 113.338 77.7644 113.289 78.0873V78.1618C113.14 79.1305 112.866 79.9004 112.047 80.4965V80.4468Z" fill="#253137" />
    <path d="M113.512 77.0442C113.363 77.1435 113.214 77.2429 113.04 77.3422C112.419 77.6651 109.96 78.5344 110.233 77.0938C110.332 76.5226 110.953 75.7775 111.624 75.4298C111.351 75.1069 111.425 74.6598 111.525 74.3121C111.823 73.269 112.717 72.5487 113.413 71.7539C113.959 72.499 114.183 73.4677 114.133 74.3866C114.059 75.3056 113.736 76.1749 113.512 77.069V77.0442Z" fill="#CA0101" />
    <path d="M112.047 80.4469C111.873 80.5711 111.649 80.7201 111.376 80.8691C111.302 80.8691 111.252 80.8195 111.202 80.7946C110.581 80.4717 110.78 80.0247 111.153 79.4534C111.575 78.8325 112.469 78.2613 113.264 78.0874C113.115 79.056 112.842 79.826 112.022 80.4221L112.047 80.4469Z" fill="#CA0101" />
    <path d="M106.805 69.1706C106.954 69.1458 106.631 67.7549 106.209 67.5562C104.048 66.6372 96.7686 63.5078 92.7937 61.6699C92.0733 60.8999 91.2783 60.1548 91.2783 60.1548C91.2783 60.1548 90.6821 60.2293 90.1107 60.2542C90.9802 58.9626 84.3223 37.9258 79.5028 35.3428C76.472 36.7585 68.9446 43.3403 69.4414 46.2213C70.3606 51.6606 77.7638 66.5131 79.2295 68.2765C83.9248 73.8399 93.3154 76.87 100.172 77.9132C101.613 78.1367 104.942 77.7145 105.265 76.3733C104.669 75.4295 103.7 74.5602 104.495 71.6543C104.867 70.2386 106.134 69.3693 106.805 69.1954V69.1706Z" fill="#192226" />
    <path d="M165.41 223.259C164.764 222.812 161.956 223.507 161.286 223.159C158.131 221.52 154.056 219.459 150.926 217.794C147.597 216.031 144.293 214.243 140.989 212.455C130.555 206.817 120.171 201.079 109.836 195.292C107.228 193.827 104.619 192.362 102.011 190.921C99.9984 189.778 97.9612 188.636 95.9241 187.493C91.8747 185.209 87.8254 182.899 83.8505 180.639C79.8757 178.378 75.9753 176.118 72.224 173.957C68.4728 171.772 64.8706 169.661 61.4671 167.649C55.5793 164.172 52.7969 162.408 46.9589 158.832C44.5739 157.366 42.5368 156.1 40.8475 155.032C40.7481 154.957 40.6239 154.883 40.5246 154.833C38.9843 153.864 37.7918 153.119 36.9472 152.573C36.5 152.275 36.1522 152.076 35.9286 151.927L35.5808 151.704C33.3201 150.238 29.4198 150.114 26.8858 151.406C25.6685 152.026 25.2959 152.225 24.8487 152.772C24.8239 152.995 24.8239 154.187 24.8487 154.411C24.9729 155.131 25.4698 155.826 26.389 156.423C26.538 156.522 26.7119 156.621 26.8858 156.696C26.8858 156.696 27.01 156.77 27.2833 156.894C27.5317 157.019 27.9292 157.217 28.4261 157.491C28.7242 157.64 29.072 157.838 29.4695 158.037C30.339 158.509 31.4321 159.055 32.6991 159.726C33.1711 159.974 33.6431 160.223 34.1648 160.496C35.6802 161.291 37.3944 162.21 39.2824 163.253C39.4066 163.327 39.5308 163.377 39.6551 163.451C40.1768 163.725 40.6985 164.023 41.2202 164.296C51.5548 169.884 58.7344 173.933 68.9199 179.794C71.6527 181.359 74.3605 182.948 77.0684 184.513C80.9936 186.798 84.9933 189.133 88.9433 191.492C90.9307 192.66 92.9182 193.827 94.8807 194.994C104.197 200.533 113.488 206.096 122.754 211.709C123.202 211.983 123.674 212.256 124.121 212.529C128.667 215.311 133.188 218.068 137.71 220.874C137.983 221.048 138.256 221.197 138.505 221.371C142.852 224.078 147.175 226.785 151.473 229.542C154.205 231.281 158.851 231.43 161.882 229.865C164.913 228.3 167.745 224.848 165.434 223.234L165.41 223.259Z" fill="#0D0D15" />
    <path d="M161.857 228.921C158.826 230.486 154.18 230.362 151.448 228.623C147.15 225.866 142.802 223.159 138.48 220.452C138.207 220.303 137.958 220.129 137.685 219.955C133.163 217.149 128.642 214.392 124.096 211.61C123.649 211.337 123.201 211.064 122.729 210.79C113.463 205.177 104.172 199.614 94.8558 194.075C92.8683 192.908 90.9057 191.74 88.9183 190.548C84.9434 188.214 80.9686 185.879 77.0434 183.569C74.3355 181.98 71.6028 180.415 68.8701 178.825C62.5103 175.149 57.3182 172.219 51.8031 169.139C50.1386 168.195 48.4244 167.251 46.6357 166.283C44.8967 165.339 43.1081 164.345 41.1952 163.327C40.6486 163.029 40.1269 162.756 39.6301 162.483C39.5058 162.408 39.3816 162.334 39.2574 162.284C37.3694 161.266 35.6552 160.347 34.1398 159.527C33.6429 159.254 33.1461 158.981 32.6741 158.757C31.4071 158.087 30.314 157.515 29.4445 157.068C29.0718 156.87 28.724 156.696 28.4011 156.522C27.9042 156.273 27.5316 156.075 27.2583 155.926L26.8857 155.727C26.7118 155.653 26.5379 155.553 26.3888 155.454C24.1281 153.988 24.3517 151.753 26.8857 150.437C29.4196 149.12 33.32 149.245 35.5807 150.71C35.5807 150.71 35.7049 150.784 35.9285 150.934C36.1769 151.083 36.4999 151.306 36.947 151.579C37.7668 152.101 38.9841 152.871 40.5244 153.839C40.6238 153.914 40.7231 153.988 40.8474 154.038C42.5367 155.081 44.5738 156.373 46.9587 157.838C50.7845 160.173 53.2936 161.738 56.2251 163.526C57.7654 164.445 59.4298 165.438 61.4421 166.655C62.7339 167.425 64.0754 168.22 65.417 168.99C67.6031 170.281 69.8887 171.598 72.1991 172.964C75.9503 175.149 79.8507 177.385 83.8255 179.67C87.8004 181.93 91.8498 184.24 95.8991 186.525C97.9363 187.667 99.9485 188.81 101.986 189.952C104.594 191.418 107.203 192.883 109.811 194.324C120.171 200.111 130.555 205.848 140.964 211.486C144.268 213.299 147.597 215.062 150.926 216.826C154.056 218.49 159.82 221.768 164.813 223.035C167.62 223.73 164.888 227.357 161.857 228.921Z" fill="#B50202" />
    <path d="M158.926 223.383C158.926 223.383 157.907 221.719 156.789 219.955C156.566 219.831 156.317 219.707 156.069 219.583C154.603 218.813 152.864 217.894 150.926 216.851C147.374 217.919 141.66 219.558 138.505 220.477C139.648 221.172 140.716 221.843 141.734 222.489C150.256 224.028 158.951 223.432 158.951 223.432L158.926 223.383Z" fill="#830209" />
    <path d="M49.3439 160.148C49.3439 160.148 49.0209 159.602 48.5241 158.807C47.9775 158.484 47.4558 158.161 46.9341 157.838C44.5492 156.373 42.5121 155.106 40.8228 154.038C40.7234 153.964 40.5992 153.914 40.4998 153.839C37.1461 154.833 32.4011 156.199 29.4199 157.043C30.2894 157.49 31.3825 158.062 32.6495 158.732C33.1215 158.981 33.5935 159.229 34.1152 159.502C41.9407 160.645 49.3439 160.123 49.3439 160.123V160.148Z" fill="#830209" />
    <path d="M65.8144 169.586C65.8144 169.586 59.1814 170.058 51.8031 169.139C50.1386 168.195 48.4244 167.251 46.6357 166.283C49.3933 165.488 53.2191 164.395 56.2251 163.501C57.7653 164.42 59.4298 165.413 61.4421 166.63C62.7339 167.4 64.0754 168.195 65.4169 168.965L65.7896 169.561L65.8144 169.586Z" fill="#830209" />
    <path d="M145.311 215.534C145.311 215.534 144.616 214.392 143.746 212.976C142.852 212.504 141.933 212.008 140.989 211.486C139.598 210.741 138.181 209.971 136.691 209.151C133.337 210.145 128.493 211.536 125.462 212.43C126.207 212.877 126.928 213.324 127.648 213.771C128.219 214.119 128.791 214.466 129.362 214.814C137.461 216.081 145.336 215.534 145.336 215.534H145.311Z" fill="#830209" />
    <path d="M131.698 207.661C131.698 207.661 131.226 206.866 130.555 205.798C128.915 204.904 127.251 203.985 125.537 203.041C124.568 202.52 123.599 201.973 122.605 201.427C119.45 202.371 115.177 203.588 112.271 204.432C113.761 205.326 115.227 206.22 116.668 207.065C124.419 208.158 131.698 207.661 131.698 207.661Z" fill="#830209" />
    <path d="M110.134 198.894C108.469 199.813 105.861 199.788 104.246 198.819C104.246 198.819 103.501 198.372 102.209 197.602C101.563 197.205 100.768 196.733 99.8735 196.211C99.799 196.162 99.7493 196.137 99.6748 196.087C101.24 196.658 103.376 196.559 104.768 195.789C106.208 194.994 106.432 193.752 105.463 192.833C105.513 192.833 105.563 192.883 105.612 192.908C106.556 193.43 107.376 193.877 108.047 194.249C109.388 194.994 110.158 195.441 110.158 195.441C110.183 195.441 110.233 195.491 110.283 195.516C111.873 196.46 111.823 198 110.158 198.894H110.134Z" fill="#070709" />
    <path d="M104.768 195.789C103.377 196.559 101.24 196.658 99.6753 196.087C98.8307 195.566 97.8618 194.994 96.8184 194.398C95.7005 193.728 94.4832 193.007 93.2162 192.262C92.4212 191.79 82.012 185.606 73.8884 180.788C72.8202 180.167 71.8016 179.546 70.8328 178.975L70.2614 178.627C69.7148 178.006 69.2925 177.186 69.0938 176.342C70.0626 175.622 70.957 174.901 72.0004 174.206C72.0997 174.131 72.224 174.057 72.3482 173.982C72.4475 174.032 72.5469 174.107 72.6463 174.156C73.9381 174.901 75.3045 175.696 76.7454 176.516C78.1862 177.335 79.652 178.18 81.1425 179.049C82.6331 179.894 84.1485 180.763 85.6888 181.632C87.2042 182.501 88.7196 183.371 90.235 184.215C91.7256 185.06 93.2162 185.904 94.6571 186.724C96.0979 187.543 97.4891 188.313 98.8058 189.058C100.122 189.804 101.365 190.499 102.507 191.145C103.6 191.766 104.619 192.337 105.513 192.834C106.482 193.777 106.259 194.994 104.818 195.789H104.768Z" fill="#424145" />
    <path d="M71.1061 171.474L69.1436 176.044C69.1436 176.044 69.1932 176.292 69.2181 176.416L71.5036 174.405L74.5593 169.71L71.131 171.474H71.1061Z" fill="#070709" />
    <path d="M73.2175 175.423C72.9194 175.249 72.9194 172.269 72.6212 172.095L69.2178 176.565C69.2426 176.714 69.2923 176.863 69.342 177.012C70.0127 177.385 70.6835 177.782 71.3791 178.18L74.6832 176.267C74.236 176.019 73.7392 175.721 73.2175 175.423Z" fill="#070709" />
    <path d="M90.3595 189.282L89.9868 189.058L85.6642 186.5L81.1925 183.867L76.6959 181.235L72.3484 178.701L72.249 178.652L75.578 176.739C75.578 176.739 75.6525 176.789 75.6773 176.789L80.0745 179.297L84.6208 181.88L89.167 184.464L93.589 186.972L93.9617 187.171L90.4092 189.207L90.3595 189.282Z" fill="#070709" />
    <path d="M94.4338 191.964H94.3842L92.347 190.722L89.6889 189.133C88.9933 188.711 88.2231 188.264 87.4033 187.792L91.1546 185.631C91.9992 186.103 92.7942 186.55 93.5147 186.947L96.2474 188.487L98.359 189.654C98.359 189.654 98.3839 189.654 98.4087 189.679H98.4584C98.9801 190.002 99.2534 190.424 99.2534 190.847C99.2534 191.294 98.9304 191.691 98.3839 191.989C97.2908 192.61 95.5269 192.585 94.4338 191.989V191.964Z" fill="#070709" />
    <path d="M143.97 217.273C143.97 217.273 139.274 217.819 133.784 217.521C135.151 218.366 136.442 219.161 137.685 219.93L143.97 217.273Z" fill="#F2F2F2" />
    <path d="M129.884 209.151C129.884 209.151 125.661 209.648 120.568 209.449C121.314 209.896 122.034 210.344 122.755 210.791C123.202 211.064 123.674 211.337 124.121 211.61L129.909 209.151H129.884Z" fill="#F2F2F2" />
    <path d="M48.4988 162.16C48.4988 162.16 44.5239 162.632 39.6299 162.483C40.1516 162.756 40.6733 163.054 41.195 163.327C41.8409 163.675 42.5117 164.047 43.1824 164.42L48.4988 162.16Z" fill="#F2F2F2" />
    <path d="M156.739 224.649C156.739 224.649 151.448 225.27 145.535 224.848C145.759 224.997 146.007 225.146 146.206 225.27C147.746 226.239 148.963 227.009 149.858 227.58L156.739 224.649Z" fill="#F2F2F2" />
    <path d="M83.6769 186.55C89.4156 188.984 93.7879 188.686 93.4401 185.829C93.3656 185.258 92.7694 184.19 92.0986 183.445C91.9495 183.271 91.8005 183.122 91.6514 182.998C91.08 182.526 90.5086 182.054 89.9124 181.607C89.9124 181.607 89.9124 181.607 89.8876 181.582C87.8008 179.993 85.6146 178.801 83.2048 179.695C79.0809 181.235 74.2614 173.212 72.8454 176.193C72.8951 176.118 72.6218 178.155 73.0441 178.85C74.5098 181.334 79.1803 184.662 83.6769 186.575V186.55Z" fill="#253137" />
    <path d="M83.9003 185.879C78.3604 183.52 72.5471 178.999 72.8204 176.565C72.8701 176.069 72.2739 164.768 72.249 164.47C72.249 164.47 78.2858 163.302 83.0805 162.657C83.7016 165.24 83.155 169.636 84.1984 173.411C84.6208 173.958 85.1673 174.653 85.8132 175.398C86.2852 175.969 86.7821 176.565 87.3038 177.161C87.7013 177.633 88.0988 178.105 88.4963 178.552C88.9186 179.049 89.3409 179.521 89.7136 179.943C90.8066 181.185 91.6761 182.129 91.8749 182.303C92.0488 182.427 92.173 182.576 92.3221 182.75C92.9928 183.495 93.589 184.563 93.6636 185.134C94.0114 187.966 89.639 188.288 83.9003 185.83V185.879Z" fill="#253137" />
    <path d="M77.7137 175.025C77.987 175.298 78.2851 175.522 78.5832 175.721C80.8439 175.696 83.0053 175.199 84.62 173.957C84.471 173.758 84.3219 173.585 84.1977 173.411C84.0735 172.989 83.999 172.566 83.9244 172.144C81.788 173.336 79.403 173.883 77.043 173.585C77.1175 174.106 77.3162 174.603 77.7386 175.025H77.7137Z" fill="#CA0101" />
    <path d="M83.9003 185.879C78.4846 183.569 72.8204 179.198 72.8204 176.739C72.8204 176.689 72.8204 176.64 72.8204 176.565C72.8204 176.441 72.8204 175.77 72.7707 174.827C72.7459 173.982 72.6962 172.964 72.6465 171.846C73.3172 172.318 74.0128 172.691 74.7084 172.989C74.7581 173.312 74.8078 173.634 74.932 173.932C75.1308 174.504 75.4537 175.025 75.8761 175.522C77.7641 177.782 81.4905 179.223 84.422 180.688C85.2667 180.688 86.1113 183.246 86.9808 183.246C89.0428 183.619 90.6079 183.221 91.85 182.278L91.8997 182.327C92.0736 182.452 92.1978 182.601 92.3469 182.774C92.5208 182.973 92.6947 183.197 92.8686 183.445C93.3157 184.066 93.6387 184.761 93.6884 185.184C94.0362 188.015 89.6638 188.338 83.9251 185.879H83.9003Z" fill="#CA0101" />
    <path d="M83.2537 84.793C83.2537 84.793 64.5719 88.295 61.8888 89.1394C61.7149 89.1891 68.9194 120.831 73.2669 134.243C73.2669 134.268 71.0807 138.341 70.9813 140.303C70.3354 152.3 71.4782 157.019 70.9813 168.319C71.503 173.908 82.0364 174.926 86.0609 170.306C86.5081 163.476 85.6138 145.246 87.5764 136.205C88.421 128.059 86.2597 111.716 83.8251 96.1683C83.7754 91.2009 83.2537 84.793 83.2537 84.793Z" fill="#B50202" />
    <path d="M83.9003 185.879C78.4846 183.569 72.8204 179.198 72.8204 176.739C72.8204 176.689 72.8204 176.64 72.8204 176.565C72.8204 176.441 72.8204 175.77 72.7707 174.827C72.7459 173.982 72.6962 172.964 72.6465 171.846C73.3172 172.318 74.0128 172.691 74.7084 172.989C74.7581 173.312 74.8078 173.634 74.932 173.932C75.1059 175.249 75.404 176.491 75.8761 177.559C76.522 179.024 78.0622 181.135 79.7267 181.309C80 181.334 80.8943 180.018 81.6644 180.067C82.1365 180.092 83.627 181.185 83.9748 181.533C85.689 183.097 85.6393 184.662 88.4217 184.96C90.0365 185.134 92.173 184.886 92.8686 183.42C93.3157 184.041 93.6387 184.737 93.6884 185.159C94.0362 187.99 89.6638 188.313 83.9251 185.854L83.9003 185.879Z" fill="#AA0000" />
    <path d="M87.3038 177.161C86.9808 177.037 86.5585 177.012 86.0368 177.062C83.1302 177.41 79.2547 180.39 78.882 181.185C78.733 181.483 78.4349 181.682 78.1119 181.682C77.9877 181.682 77.8635 181.657 77.7393 181.607C77.3169 181.409 77.143 180.887 77.3418 180.49C78.0871 178.95 82.6085 175.82 85.8132 175.398C86.3597 175.1 87.8503 176.541 87.3038 177.161Z" fill="#9E9E9E" />
    <path d="M80.7203 179.521C81.1675 179.198 81.6644 178.875 82.1861 178.552C81.7141 178.204 81.242 177.832 80.7949 177.41C80.3477 177.683 79.9254 177.981 79.5527 178.254C79.9254 178.676 80.3229 179.099 80.7203 179.496V179.521Z" fill="#BCBCBC" />
    <path d="M84.8944 175.845C84.8944 175.845 84.7702 175.696 84.7453 175.622C83.7019 175.92 82.6088 176.392 81.5654 176.988C82.0374 177.385 82.5095 177.782 83.0063 178.13C84.0249 177.609 85.0931 177.211 86.0371 177.087C85.7142 176.615 85.3415 176.168 84.8695 175.845H84.8944Z" fill="#E5E5E5" />
    <path d="M89.7136 179.968C86.9063 180.614 83.5277 183.246 83.1799 183.992C83.0308 184.29 82.7327 184.463 82.4098 184.463C82.2856 184.463 82.1613 184.463 82.0371 184.389C81.6148 184.19 81.4409 183.669 81.6396 183.246C82.2607 181.955 85.5648 179.521 88.4963 178.552C89.167 178.478 90.1111 179.62 89.7136 179.943V179.968Z" fill="#9E9E9E" />
    <path d="M87.6515 178.875C86.7571 179.248 85.8628 179.719 85.043 180.241C85.2914 180.465 85.5647 180.688 85.8131 180.912C85.987 181.085 86.1609 181.259 86.3348 181.458C87.1298 180.986 87.9993 180.539 88.8439 180.241C88.4713 179.769 88.0738 179.322 87.6763 178.875H87.6515Z" fill="#E5E5E5" />
    <path d="M84.993 181.284C84.7694 181.085 84.5458 180.887 84.3222 180.688C83.8502 181.011 83.4527 181.334 83.0801 181.657C83.4279 182.079 83.9993 182.352 84.4464 182.7C84.7942 182.427 85.1669 182.153 85.6141 181.855C85.4153 181.632 85.2166 181.433 84.993 181.259V181.284Z" fill="#BCBCBC" />
    <path d="M93.9115 191.343L97.3895 189.158C97.3895 189.158 93.9115 180.688 91.0297 181.955C87.4772 183.52 93.8866 191.343 93.8866 191.343H93.9115Z" fill="#070709" />
    <path d="M94.086 184.215C95.0797 185.954 95.9243 187.841 96.7193 189.704L97.3901 189.158C97.3901 189.158 93.9121 180.688 91.0303 181.955C90.8812 182.029 90.757 182.104 90.6328 182.203C92.1234 181.756 93.3407 182.998 94.0611 184.24L94.086 184.215Z" fill="#565559" />
    <path d="M90.5085 183.197C90.3595 183.246 90.2104 183.321 90.0614 183.495C90.0614 183.495 90.0117 183.52 89.9868 183.544C89.8129 186.351 93.912 191.343 93.912 191.343L94.2101 191.169C92.4711 188.711 90.6079 186.103 90.4837 183.197H90.5085Z" fill="#424145" />
    <path d="M94.6071 190.896L95.1288 190.598C94.1102 188.139 92.4458 184.414 91.0049 183.52C91.1788 186.202 92.9923 188.636 94.6071 190.896Z" fill="#424145" />
    <path d="M93.9113 191.343L88.6943 188.462L90.011 186.674L90.5327 185.954L93.9113 191.343Z" fill="#36353B" />
    <path d="M91.9239 189.729L88.6943 188.462L90.011 186.674L91.9239 189.729Z" fill="#070709" />
    <path d="M73.8888 180.787C72.8205 180.166 71.802 179.545 70.8331 178.974L70.2617 178.626C69.7152 178.006 69.2929 177.186 69.0941 176.341C69.0196 175.969 68.9699 175.596 68.9947 175.224L71.0815 171.498L72.0007 171.026C70.8331 171.598 71.007 173.187 71.9014 174.106C71.9262 174.106 71.951 174.156 71.9759 174.205C72.746 175.273 73.69 179.893 73.8639 180.787H73.8888Z" fill="#424145" />
    <path d="M72.6466 178.875C72.6466 178.875 69.5412 177.186 69.3425 176.168C69.1438 175.149 69.9636 173.858 70.8828 173.908C71.8019 173.957 72.6466 178.875 72.6466 178.875Z" fill="#070709" />
    <path d="M81.1673 175.15C80.7698 175.15 80.422 174.877 80.3475 174.479C80.2481 174.032 80.5214 173.56 80.9934 173.461C82.5585 173.113 83.2292 172.741 83.577 172.567C83.6516 172.517 83.7261 172.492 83.7758 172.468C84.1981 172.269 84.4217 172.542 84.6204 172.964C84.8192 173.386 84.9434 173.784 84.521 174.007L84.3968 174.082C83.9993 174.305 83.1547 174.752 81.366 175.15C81.2915 175.15 81.2418 175.15 81.1673 175.15Z" fill="#9E9E9E" />
    <path d="M83.726 172.492L83.577 172.567C83.254 172.74 82.633 173.088 81.2666 173.411C81.366 173.933 81.4405 174.554 81.6641 175.05C82.8565 174.752 83.577 174.454 84.0242 174.231C84.049 173.659 83.8999 173.039 83.726 172.467V172.492Z" fill="#BCBCBC" />
    <path d="M140.84 228.276C140.194 227.829 137.387 228.524 136.716 228.176C133.561 226.537 129.487 224.476 126.356 222.811C123.027 221.048 119.723 219.26 116.419 217.472C105.985 211.834 95.6009 206.096 85.2663 200.309C82.6578 198.844 80.0492 197.378 77.4408 195.913C75.4285 194.771 73.3914 193.628 71.3543 192.486C67.3049 190.201 63.2555 187.891 59.2806 185.631C55.3058 183.37 51.4054 181.11 47.6542 178.925C43.9029 176.739 40.3007 174.628 36.8724 172.616C30.9846 169.139 28.2022 167.376 22.3641 163.799C20.0041 162.334 17.9421 161.067 16.2528 159.999C16.1534 159.924 16.0292 159.85 15.9298 159.8C14.3896 158.832 13.1971 158.087 12.3525 157.54C11.9053 157.267 11.5575 157.043 11.3339 156.894C11.1103 156.745 10.9861 156.671 10.9861 156.671C8.7254 155.205 4.82507 155.081 2.2911 156.373C1.0738 156.994 0.701155 157.192 0.253984 157.739C0.229141 157.962 0.229141 159.155 0.253984 159.378C0.378198 160.098 0.875055 160.794 1.79424 161.39C1.9433 161.489 2.1172 161.589 2.2911 161.688C2.2911 161.688 2.41531 161.762 2.68858 161.887C2.93701 162.011 3.3345 162.209 3.83136 162.483C4.12947 162.632 4.47727 162.83 4.87476 163.029C5.74426 163.476 6.83734 164.047 8.10433 164.743C8.57634 164.991 9.04836 165.24 9.57006 165.513C11.0855 166.308 12.7996 167.227 14.6628 168.27C14.7871 168.344 14.9113 168.419 15.0355 168.468L16.6006 169.313C26.9352 174.926 34.1148 178.95 44.3004 184.811C47.0331 186.376 49.741 187.965 52.4488 189.555C56.374 191.84 60.3737 194.175 64.3237 196.534C66.3111 197.701 68.2986 198.869 70.2612 200.036C79.5772 205.575 88.8685 211.138 98.1349 216.751C98.582 217.024 99.054 217.298 99.5012 217.571C104.047 220.353 108.569 223.109 113.09 225.916C113.364 226.09 113.612 226.239 113.885 226.413C118.233 229.12 122.555 231.827 126.853 234.584C129.586 236.323 134.232 236.472 137.262 234.907C140.293 233.342 143.125 229.89 140.815 228.276H140.84Z" fill="#0D0D15" />
    <path d="M137.288 233.939C134.257 235.503 129.611 235.379 126.878 233.641C122.581 230.884 118.233 228.176 113.91 225.469C113.637 225.295 113.389 225.146 113.116 224.972C108.594 222.166 104.073 219.409 99.5265 216.627C99.0793 216.354 98.6321 216.081 98.1601 215.808C88.8937 210.195 79.6025 204.631 70.2864 199.092C68.299 197.925 66.3364 196.758 64.349 195.566C60.3741 193.231 56.3992 190.896 52.4741 188.586C49.7662 186.997 47.0335 185.432 44.3008 183.843C37.941 180.167 32.7488 177.236 27.2337 174.156C25.5693 173.212 23.8551 172.269 22.0664 171.3C20.3274 170.356 18.5387 169.363 16.6258 168.344C16.0793 168.046 15.5576 167.773 15.0607 167.475C14.9365 167.401 14.8123 167.351 14.6881 167.276C12.8 166.258 11.0859 165.339 9.57045 164.544C9.04875 164.271 8.57674 163.998 8.10472 163.774C6.83774 163.104 5.74465 162.533 4.87515 162.086C4.50251 161.887 4.15471 161.713 3.83175 161.539C3.33489 161.291 2.96225 161.092 2.68898 160.943C2.44055 160.794 2.31634 160.744 2.31634 160.744C2.14244 160.67 1.96854 160.57 1.81948 160.471C-0.441222 159.006 -0.217636 156.77 2.31634 155.454C4.85031 154.138 8.75064 154.287 11.0113 155.727C11.0113 155.727 11.1356 155.802 11.3591 155.951C11.6076 156.1 11.9305 156.323 12.3777 156.597C13.2224 157.143 14.4148 157.888 15.9551 158.857C16.0544 158.931 16.1787 158.981 16.278 159.055C17.9673 160.099 20.0045 161.39 22.3894 162.855C26.2152 165.19 28.7243 166.755 31.6558 168.543C33.196 169.462 34.8605 170.456 36.8728 171.673C38.1646 172.442 39.5061 173.237 40.8476 174.007C43.0338 175.299 45.3193 176.615 47.6297 177.981C51.381 180.167 55.2813 182.402 59.2313 184.662C63.2062 186.922 67.2556 189.232 71.305 191.517C73.3421 192.66 75.3792 193.802 77.3915 194.945C80 196.385 82.6085 197.875 85.217 199.341C95.5764 205.128 105.961 210.865 116.37 216.503C119.674 218.316 123.003 220.08 126.307 221.843C129.437 223.507 135.201 226.786 140.194 228.052C143.001 228.748 140.269 232.374 137.238 233.939H137.288Z" fill="#B50202" />
    <path d="M134.355 228.4C134.355 228.4 133.337 226.736 132.219 224.972C131.995 224.848 131.747 224.724 131.498 224.6C130.033 223.805 128.294 222.911 126.356 221.868C122.803 222.936 117.09 224.575 113.935 225.469C115.077 226.189 116.146 226.835 117.164 227.481C125.685 229.021 134.38 228.425 134.38 228.425L134.355 228.4Z" fill="#830209" />
    <path d="M24.7736 165.166C24.7736 165.166 24.4506 164.619 23.9538 163.824C23.4072 163.501 22.8855 163.154 22.3638 162.856C20.0038 161.39 17.9418 160.124 16.2525 159.056C16.1531 158.981 16.0289 158.907 15.9295 158.857C12.5757 159.85 7.83075 161.216 4.84961 162.061C5.71911 162.508 6.8122 163.079 8.07918 163.775C8.5512 164.023 9.02321 164.271 9.54491 164.545C17.3704 165.687 24.7736 165.166 24.7736 165.166Z" fill="#830209" />
    <path d="M41.2451 174.603C41.2451 174.603 34.5872 175.075 27.2337 174.156C25.5692 173.212 23.8551 172.268 22.0664 171.3C24.7991 170.505 28.6498 169.412 31.6558 168.518C33.196 169.437 34.8605 170.431 36.8728 171.648C38.1646 172.417 39.5061 173.212 40.8476 173.982C41.096 174.355 41.2203 174.578 41.2203 174.578L41.2451 174.603Z" fill="#830209" />
    <path d="M120.742 220.552C120.742 220.552 120.046 219.409 119.152 217.993C118.258 217.521 117.338 217.025 116.394 216.503C115.003 215.758 113.587 214.963 112.097 214.168C108.743 215.162 103.898 216.553 100.843 217.447C101.588 217.894 102.308 218.341 103.029 218.788C103.6 219.136 104.172 219.484 104.718 219.831C112.817 221.098 120.692 220.552 120.692 220.552H120.742Z" fill="#830209" />
    <path d="M107.128 212.678C107.128 212.678 106.656 211.884 105.986 210.816C104.346 209.921 102.681 209.003 100.967 208.059C99.9984 207.537 99.0295 206.991 98.0358 206.444C94.8808 207.388 90.6078 208.605 87.7012 209.45C89.1917 210.344 90.6575 211.238 92.0984 212.082C99.8493 213.175 107.128 212.678 107.128 212.678Z" fill="#830209" />
    <path d="M85.5643 203.911C83.8998 204.83 81.2913 204.805 79.6766 203.836C79.6766 203.836 78.9313 203.389 77.6394 202.619C76.9935 202.222 76.1986 201.75 75.3042 201.228C75.2297 201.179 75.1552 201.154 75.1055 201.104C76.6706 201.675 78.8071 201.576 80.1983 200.806C81.6143 200.011 81.8627 198.794 80.8939 197.851C80.9435 197.875 80.9932 197.9 81.0181 197.925C81.9621 198.447 82.7819 198.894 83.4527 199.266C84.7942 200.011 85.5643 200.458 85.5643 200.458C85.5892 200.458 85.6388 200.508 85.6885 200.533C87.2785 201.477 87.2288 203.017 85.5643 203.911Z" fill="#070709" />
    <path d="M80.1988 200.806C78.8076 201.601 76.6711 201.676 75.106 201.104C74.2613 200.583 73.2924 200.012 72.249 199.415C71.1311 198.745 69.9138 198.025 68.6468 197.279C67.8519 196.808 57.4427 190.598 49.3191 185.805C48.2508 185.184 47.2074 184.563 46.2634 183.992L45.692 183.644C45.1455 183.023 44.7232 182.203 44.5244 181.359C45.4933 180.639 46.3876 179.918 47.431 179.223C47.5304 179.149 47.6546 179.074 47.7788 179C47.8782 179.049 47.9776 179.124 48.0769 179.173C49.3688 179.918 50.7351 180.713 52.1512 181.533C53.5672 182.352 55.0578 183.197 56.5484 184.066C58.0389 184.911 59.5543 185.78 61.0946 186.649C62.61 187.519 64.1254 188.388 65.6408 189.232C67.1314 190.077 68.622 190.921 70.038 191.741C71.4789 192.56 72.8701 193.33 74.1868 194.075C75.5035 194.821 76.7456 195.516 77.8884 196.162C78.9815 196.783 80 197.354 80.8944 197.851C81.8632 198.795 81.6396 200.012 80.1988 200.806Z" fill="#424145" />
    <path d="M46.5358 176.516L44.5732 181.086C44.5732 181.086 44.6229 181.334 44.6478 181.458L46.9333 179.447L49.989 174.752L46.5607 176.516H46.5358Z" fill="#070709" />
    <path d="M48.6481 180.44C48.35 180.266 48.35 177.286 48.0519 177.112L44.6484 181.582C44.6733 181.731 44.723 181.881 44.7726 182.03C45.4434 182.427 46.1142 182.799 46.8098 183.222L50.1139 181.309C49.6667 181.036 49.1698 180.763 48.6481 180.465V180.44Z" fill="#070709" />
    <path d="M65.7892 194.299L65.4165 194.075L61.0939 191.517L56.6221 188.885L52.1256 186.252L47.7781 183.718C47.7781 183.718 47.7036 183.694 47.6787 183.669L50.9828 181.756L51.0822 181.806L55.4794 184.315L60.0256 186.898L64.5719 189.481L68.9939 191.989L69.3665 192.188L65.814 194.249L65.7892 194.299Z" fill="#070709" />
    <path d="M69.8635 196.981H69.8139L67.7767 195.739L65.1186 194.15C64.423 193.728 63.6528 193.281 62.833 192.784L66.5843 190.623C67.4289 191.095 68.2239 191.542 68.9443 191.939L71.6771 193.479L73.7887 194.647H73.8384V194.696C74.3849 195.019 74.6831 195.417 74.6582 195.864C74.6582 196.286 74.3353 196.708 73.7887 197.006C72.6956 197.627 70.9318 197.602 69.8387 197.006L69.8635 196.981Z" fill="#070709" />
    <path d="M119.4 222.315C119.4 222.315 114.705 222.861 109.215 222.563C110.581 223.408 111.873 224.202 113.115 224.972L119.4 222.29V222.315Z" fill="#F2F2F2" />
    <path d="M105.314 214.168C105.314 214.168 101.091 214.665 95.998 214.466C96.7433 214.914 97.4638 215.361 98.1842 215.808C98.6314 216.081 99.1034 216.354 99.5506 216.627L105.314 214.168Z" fill="#F2F2F2" />
    <path d="M23.9294 167.177C23.9294 167.177 19.9546 167.649 15.0605 167.5C15.5822 167.773 16.1039 168.071 16.6256 168.345C17.2716 168.692 17.9423 169.065 18.6131 169.437L23.9294 167.177Z" fill="#F2F2F2" />
    <path d="M132.17 229.667C132.17 229.667 126.878 230.287 120.966 229.865C121.189 230.014 121.413 230.163 121.637 230.287C123.177 231.256 124.394 232.026 125.288 232.597L132.17 229.667Z" fill="#F2F2F2" />
    <path d="M59.1071 191.567C64.8458 194.001 69.2181 193.678 68.8703 190.847C68.7958 190.275 68.1996 189.207 67.5288 188.462C67.3798 188.288 67.2307 188.139 67.0816 188.015C66.5103 187.543 65.9389 187.071 65.3427 186.624C65.3427 186.624 65.3427 186.624 65.3427 186.599C63.2559 185.01 61.0697 183.818 58.6599 184.712C54.536 186.252 49.7165 178.229 48.3004 181.21C48.3501 181.111 48.0769 183.172 48.4992 183.867C49.9649 186.351 54.6354 189.679 59.1319 191.592L59.1071 191.567Z" fill="#253137" />
    <path d="M59.33 190.896C53.7901 188.537 47.9768 184.017 48.2501 181.607C48.2998 181.111 47.7036 169.81 47.6787 169.512C47.6787 169.512 53.7404 168.369 58.5102 167.699C59.1313 170.282 58.5847 174.678 59.6281 178.453C60.0505 179 60.597 179.695 61.2429 180.44C61.7149 181.011 62.2118 181.607 62.7335 182.203C63.131 182.675 63.5285 183.147 63.9259 183.594C64.3483 184.091 64.7706 184.563 65.1432 184.985C66.2363 186.227 67.1058 187.171 67.3046 187.345C67.4785 187.469 67.6027 187.618 67.7517 187.792C68.4225 188.537 69.0187 189.605 69.0933 190.176C69.4411 193.008 65.0687 193.33 59.33 190.872V190.896Z" fill="#253137" />
    <path d="M60.0504 178.975C59.9013 178.776 59.7523 178.602 59.628 178.428C59.5038 178.006 59.4293 177.584 59.3299 177.162C57.0444 178.428 54.5104 179 51.9764 178.528C51.9268 179.322 51.9268 180.068 52.2 180.664C55.057 180.937 57.9884 180.539 60.0255 178.975H60.0504Z" fill="#CA0101" />
    <path d="M59.3304 190.896C53.9147 188.586 48.2505 184.215 48.2505 181.756C48.2505 181.706 48.2505 181.657 48.2505 181.582C48.2505 181.458 48.2505 180.788 48.2008 179.844C48.176 178.999 48.1263 177.981 48.0518 176.863C48.7225 177.335 49.4181 177.708 50.1137 178.006C50.1634 178.329 50.2131 178.652 50.3373 178.95C50.536 179.521 50.859 180.042 51.2813 180.539C53.1694 182.799 56.8958 184.265 59.8273 185.705C60.6719 185.705 61.5414 188.263 62.3861 188.263C64.448 188.636 66.0131 188.239 67.2553 187.295L67.305 187.344C67.4789 187.469 67.6031 187.618 67.7521 187.792C67.926 187.99 68.0999 188.214 68.2738 188.462C68.721 189.083 69.044 189.778 69.0937 190.201C69.4415 193.032 65.0691 193.355 59.3304 190.896Z" fill="#CA0101" />
    <path d="M59.3304 190.896C53.9147 188.586 48.2505 184.215 48.2505 181.756C48.2505 181.706 48.2505 181.657 48.2505 181.582C48.2505 181.458 48.2505 180.788 48.2008 179.844C48.176 178.999 48.1263 177.981 48.0518 176.863C48.7225 177.335 49.4181 177.708 50.1137 178.006C50.1634 178.329 50.2131 178.652 50.3373 178.95C50.5112 180.266 50.8093 181.508 51.2813 182.576C51.9272 184.016 53.4675 186.152 55.132 186.326C55.4052 186.351 56.2996 185.035 57.0697 185.084C57.5417 185.109 59.0323 186.202 59.3801 186.55C61.0943 188.114 61.0446 189.679 63.827 190.002C65.4418 190.176 67.5782 189.927 68.2738 188.462C68.721 189.083 69.044 189.778 69.0937 190.201C69.4415 193.032 65.0691 193.355 59.3304 190.896Z" fill="#AA0000" />
    <path d="M62.7091 182.203C62.3861 182.079 61.9638 182.054 61.4421 182.104C58.5355 182.452 54.66 185.432 54.2873 186.252C54.1383 186.55 53.8402 186.724 53.5172 186.724C53.393 186.724 53.2688 186.699 53.1446 186.649C52.7222 186.451 52.5483 185.929 52.7471 185.532C53.4923 183.992 58.0138 180.862 61.2185 180.44C61.765 180.142 63.2556 181.583 62.7091 182.203Z" fill="#9E9E9E" />
    <path d="M53.4926 180.589C50.8096 180.589 48.7477 179.546 47.6297 178.801C47.2322 178.528 47.1329 178.006 47.4061 177.634C47.6546 177.236 48.2011 177.137 48.5738 177.41C50.114 178.453 52.648 179.496 55.9521 178.577C56.3993 178.453 56.8713 178.726 56.9955 179.173C57.1197 179.62 56.8464 180.092 56.3993 180.217C55.3559 180.515 54.387 180.614 53.4926 180.614V180.589Z" fill="#9E9E9E" />
    <path d="M56.15 184.538C56.5972 184.215 57.0941 183.892 57.6158 183.569C57.1437 183.222 56.6717 182.849 56.2246 182.427C55.7774 182.7 55.3551 182.998 54.9824 183.271C55.3551 183.693 55.7525 184.116 56.15 184.513V184.538Z" fill="#BCBCBC" />
    <path d="M60.3241 180.862C60.3241 180.862 60.1998 180.738 60.175 180.639C59.1316 180.937 58.0385 181.409 56.9951 182.005C57.4423 182.402 57.9391 182.799 58.436 183.147C59.4546 182.626 60.5228 182.228 61.4668 182.104C61.1439 181.632 60.7712 181.185 60.2992 180.862H60.3241Z" fill="#E5E5E5" />
    <path d="M65.1433 184.985C62.336 185.631 58.9574 188.264 58.6096 189.009C58.4605 189.307 58.1624 189.505 57.8395 189.505C57.7152 189.505 57.591 189.481 57.4668 189.406C57.0445 189.207 56.8706 188.686 57.0693 188.264C57.6904 186.972 60.9945 184.538 63.926 183.569C64.5967 183.495 65.5407 184.637 65.1433 184.96V184.985Z" fill="#9E9E9E" />
    <path d="M63.0821 183.892C62.1878 184.265 61.2934 184.737 60.4736 185.258C60.7221 185.482 60.9953 185.705 61.2438 185.929C61.4177 186.103 61.5916 186.276 61.7655 186.475C62.5604 186.003 63.4299 185.556 64.2746 185.258C63.9019 184.786 63.5045 184.339 63.107 183.892H63.0821Z" fill="#E5E5E5" />
    <path d="M60.4236 186.301C60.2001 186.102 59.9765 185.904 59.7529 185.705C59.2809 186.028 58.8834 186.351 58.5107 186.674C58.8585 187.096 59.4299 187.369 59.8771 187.717C60.2249 187.444 60.5975 187.17 61.0199 186.872C60.8211 186.674 60.6224 186.45 60.3988 186.276L60.4236 186.301Z" fill="#BCBCBC" />
    <path d="M48.623 179.372C49.2193 179.67 49.9149 179.968 50.7595 180.217C50.7347 179.62 50.7098 179.024 50.7098 178.428C49.9894 178.18 49.3435 177.857 48.797 177.534C48.6976 178.13 48.623 178.751 48.623 179.372Z" fill="#BCBCBC" />
    <path d="M53.8154 180.589C54.5607 180.589 55.3556 180.465 56.1755 180.242C56.0761 179.869 56.0761 179.496 56.0761 179.099C56.0512 179.025 56.0761 178.95 56.0761 178.876C56.0761 178.751 56.0761 178.652 56.0761 178.528C56.0264 178.528 56.0016 178.528 55.9519 178.528C55.1072 178.751 54.3122 178.851 53.5918 178.851C53.7409 179.397 53.8154 179.968 53.8154 180.54V180.589Z" fill="#BCBCBC" />
    <path d="M69.3421 196.36L72.8201 194.2C72.8201 194.2 69.3421 185.73 66.4603 186.997C62.9078 188.562 69.3421 196.385 69.3421 196.385V196.36Z" fill="#070709" />
    <path d="M69.5157 189.232C70.5094 190.971 71.354 192.858 72.149 194.721L72.8198 194.175C72.8198 194.175 69.3418 185.705 66.46 186.972C66.3109 187.046 66.1867 187.121 66.0625 187.22C67.5531 186.773 68.7704 188.015 69.4908 189.257L69.5157 189.232Z" fill="#565559" />
    <path d="M65.9382 188.214C65.7892 188.264 65.6401 188.338 65.491 188.512C65.491 188.512 65.4414 188.537 65.4165 188.562C65.2426 191.368 69.3417 196.36 69.3417 196.36L69.6398 196.187C67.9008 193.728 66.0376 191.12 65.9134 188.214H65.9382Z" fill="#424145" />
    <path d="M70.0378 195.913L70.5595 195.615C69.5409 193.156 67.8764 189.431 66.4355 188.537C66.6094 191.219 68.423 193.653 70.0378 195.913Z" fill="#424145" />
    <path d="M69.342 196.36L64.125 193.479L65.4168 191.691L65.9634 190.971L69.342 196.36Z" fill="#36353B" />
    <path d="M67.3297 194.746L64.125 193.479L65.4168 191.691L67.3297 194.746Z" fill="#070709" />
    <path d="M49.3185 185.805C48.2502 185.184 47.2068 184.563 46.2628 183.992L45.6914 183.644C45.1449 183.023 44.7225 182.203 44.5238 181.359C44.4493 180.986 44.3996 180.614 44.4244 180.241L46.5361 176.516L47.4553 176.044C46.2876 176.615 46.4615 178.205 47.3559 179.124C47.3807 179.124 47.4056 179.173 47.4304 179.223C48.2005 180.316 49.1446 184.911 49.3185 185.805Z" fill="#424145" />
    <path d="M48.0519 183.892C48.0519 183.892 44.9465 182.203 44.7478 181.185C44.549 180.167 45.3688 178.875 46.288 178.925C47.2072 178.974 48.0519 183.892 48.0519 183.892Z" fill="#070709" />
    <path d="M66.8826 26.0292L64.5474 23.3965L51.5049 27.6188C50.4863 29.1338 49.4678 30.6489 48.4492 32.1639V39.8633L71.0314 41.4777L79.4283 34.275L66.9075 26.0292H66.8826Z" fill="#253137" />
    <path d="M59.852 27.6681C62.3611 27.0224 64.9448 26.7988 67.5036 26.4263L76.4222 32.2878C76.5713 33.1074 76.6955 33.9022 76.8197 34.6224C76.9191 35.1688 76.9936 35.7153 77.093 36.2617L71.0313 41.4526L68.5719 41.2787C68.0502 41.1545 67.5285 41.0552 66.9819 40.931C63.33 40.0865 58.585 38.9441 55.3555 36.5597C54.9331 36.1872 54.5108 35.8394 54.0885 35.4669C50.4862 31.791 56.9205 28.3884 59.852 27.6433V27.6681Z" fill="#1E1F23" />
    <path d="M70.8818 102.328C71.329 112.784 69.1428 128.779 67.4783 136.802C66.7082 140.502 63.255 149.493 62.6836 155.131C61.9632 162.135 61.6899 169.139 60.8701 173.138C60.5472 174.703 59.7273 175.87 58.6591 176.69C55.4047 179.124 49.666 178.428 46.8836 175.05C46.1631 174.156 45.9147 173.411 45.9892 171.946C47.604 160.769 45.8402 153.045 50.8088 142.762C51.6534 140.999 54.1874 135.684 53.8147 133.2C53.8147 133.175 46.6103 90.3566 55.1563 81.1422C56.1997 80.7944 56.0009 87.6743 59.4789 86.954C62.2613 86.3827 64.9692 87.4011 66.733 89.3632L71.5277 88.1462C72.0494 90.6547 72.6208 93.1384 73.217 95.6221L70.4595 97.907C70.6582 99.2234 70.8073 100.714 70.8818 102.353V102.328Z" fill="#CA0101" />
    <path d="M59.0073 104.19C60.5724 103.868 62.1127 102.8 63.5039 102.005C58.8831 101.756 53.6164 100.117 52.6227 105.283C51.8526 109.307 51.4551 114.771 53.0202 118.646C55.7777 118.695 58.6595 117.304 61.268 116.559C60.5227 118.347 57.4422 120.806 55.8274 121.999C56.9205 122.222 58.4359 121.899 59.6781 121.999C58.734 123.911 56.7218 125.774 56.1504 127.537C55.3803 129.971 57.3925 134.02 55.579 135.932C56.9702 136.056 58.3614 136.23 59.6781 136.677C58.6098 137.522 56.4982 137.919 55.3306 138.093C56.3491 138.267 57.4671 138.49 58.3366 138.813C53.7655 140.278 53.3183 144.029 52.1258 148.052C50.1633 154.734 48.4243 160.024 55.6287 163.724C53.4674 163.501 51.3309 163.625 49.1944 163.7C49.3434 167.177 53.3431 168.071 56.0013 168.717C53.8152 170.182 52.1507 172.343 49.7906 173.709C51.6538 176.441 55.7281 175.845 58.585 176.714C55.3306 179.148 49.5919 178.453 46.8095 175.075C46.089 174.181 45.0705 173.336 45.1698 171.871C46.7846 160.694 45.0456 152.846 50.039 142.563C50.8837 140.8 52.9208 135.684 52.5233 133.2C52.5233 133.175 52.5482 133.125 52.573 133.101C50.3123 115.466 46.4368 89.487 49.9148 80.2726C50.9582 79.9248 55.9765 87.6988 59.4545 86.9537C62.2369 86.3824 64.9448 87.4007 66.7086 89.3629L71.5033 88.1459C72.025 90.6544 72.5964 93.1381 73.1926 95.6218L70.435 97.9067C70.6338 99.2231 70.7828 100.713 70.8574 102.353C67.5533 104.017 62.3611 104.091 58.9825 104.215L59.0073 104.19Z" fill="#B50202" />
    <path d="M75.3041 98.0562C75.0556 98.1804 74.7824 98.3046 74.5339 98.4287C71.1305 99.9686 66.8326 100.664 62.0628 100.093C59.0568 99.7202 55.5043 98.7019 52.5232 97.1372C49.6165 95.5973 47.2813 93.5607 46.5112 91.0522C45.1697 83.5514 44.7473 66.8114 45.2939 54.6413C45.6168 47.2151 46.2876 41.4778 47.331 40.5588C47.8527 37.5535 57.8892 34.2254 64.2987 33.1574C66.5842 32.7849 68.6462 32.462 70.6336 32.7849C75.5276 33.6045 77.5648 34.4986 79.4777 35.3182C85.589 39.8385 82.5582 49.053 83.2041 54.0949C85.0921 68.55 84.4214 80.2481 85.0176 87.5005C85.3903 91.847 80.0242 95.6222 75.2544 98.0313L75.3041 98.0562Z" fill="#253137" />
    <path d="M75.1059 97.137C74.8575 97.2612 74.5842 97.3605 74.3109 97.4847C74.0377 94.5043 70.7833 45.6253 69.9883 39.1677L70.8329 39.0684C71.7024 46.1965 74.9569 95.6219 75.1059 97.1618V97.137Z" fill="#CA0101" />
    <path d="M58.1377 67.2334C60.771 64.5262 63.9758 61.1981 67.1557 57.7954L67.3047 58.8882C63.8516 62.5889 60.5226 66.0413 58.2371 68.3511L58.1377 67.2334Z" fill="#CA0101" />
    <path d="M81.7884 60.2293L81.6642 61.2972C79.9749 59.6332 78.3849 58.0436 77.0186 56.6776C77.0186 56.2802 77.0434 55.9076 77.0682 55.5103C79.6519 58.1181 81.2667 59.7077 81.7884 60.2044V60.2293Z" fill="#CA0101" />
    <path d="M77.4407 34.1757L70.8574 40.3849L70.5344 40.6829L70.0127 40.5339L70.4847 30.7979L77.4407 34.1757Z" fill="#CA0101" />
    <path d="M63.9759 22.4029L63.2555 34.7717C63.1312 36.9573 64.8206 38.8449 67.0067 38.9691C69.1929 39.0933 71.081 37.4292 71.2052 35.2187C71.2052 35.02 71.2052 34.8213 71.2052 34.6475L70.1369 22.3035C69.9879 20.5898 68.4973 19.348 66.808 19.497C65.2429 19.6212 64.0753 20.8878 63.9759 22.4029Z" fill="#F2B09E" />
    <path d="M70.857 40.3847L70.5341 40.6827L70.0124 40.5337L54.585 36.0134L59.3051 30.2513L63.5781 29.0591L63.3048 35.6905L70.0372 39.8631L70.857 40.3847Z" fill="#CA0101" />
    <path d="M75.0062 29.6055L79.2543 31.9401L70.0625 39.8383L69.8389 36.8578L70.9816 33.1323L75.0062 29.6055Z" fill="#192226" />
    <path d="M64.696 25.1595C65.4412 26.1033 64.9444 28.1151 66.6089 30.1766C68.8447 32.9832 70.9315 33.8028 71.8507 34.4237C73.4406 35.4917 75.7262 34.9701 76.3721 34.0511C77.8378 32.0145 78.6825 30.0276 79.5768 27.6681C81.6139 22.1543 81.3158 16.3176 81.0923 13.5359C79.08 7.59987 75.3535 6.10966 68.4721 6.6064C60.6217 7.17765 58.5598 17.4353 64.696 25.1347V25.1595Z" fill="#FFCCBC" />
    <path d="M70.5595 17.7335C69.2677 19.2734 68.1746 21.2852 66.9573 23.0238C65.5661 23.6695 64.15 24.4395 64.15 24.4395C61.9639 22.6264 61.5912 20.6643 60.995 17.6342C60.4981 15.1256 60.8708 11.5243 62.0384 10.1831L70.5346 17.7087L70.5595 17.7335Z" fill="#263238" />
    <path d="M80.6952 17.8575C72.8448 20.8131 64.6715 18.9503 61.8643 11.3254C62.1872 4.89266 72.6212 2.8312 78.4841 7.64955C83.0801 11.3999 83.3285 16.8889 80.6952 17.8575Z" fill="black" />
    <path d="M65.3666 21.0371C64.0251 17.237 61.5657 19.1495 61.4166 20.6645C61.2427 22.4776 62.932 25.0358 64.9195 25.5574C65.1679 25.6319 65.6151 23.8436 65.6151 23.1979C65.6151 22.3037 65.6151 21.658 65.3915 21.0122L65.3666 21.0371Z" fill="#FFCCBC" />
    <path d="M69.9378 30.2515L70.062 39.8634C70.062 39.8634 68.0249 39.5405 64.7456 37.9261C61.4664 36.3117 61.6403 27.892 61.6403 27.892L63.7519 26.9233L63.6277 29.0345L69.9626 30.2515H69.9378Z" fill="#192226" />
    <path d="M63.6533 30.1519C63.6782 30.3009 67.9263 37.7271 69.243 38.0997C69.243 35.4421 69.6156 30.4499 69.6156 30.4499L63.6533 30.1519Z" fill="#253137" />
    <path d="M66.5102 94.256C66.5102 94.256 59.2313 96.9135 55.6539 97.0874C54.6105 97.1371 53.5671 97.1619 52.5485 97.1619C49.6419 95.622 47.3067 93.5854 46.5366 91.0769C45.1951 83.5761 44.7727 66.8361 45.3193 54.666C50.0891 52.2071 55.3061 49.1025 55.3061 49.1025C55.3061 49.1025 50.6108 54.4673 48.524 57.3235C53.2441 54.4176 63.4546 50.1954 63.8272 50.0463C63.38 50.5431 48.9215 65.9419 48.6731 65.9419C46.2881 70.8348 47.8284 82.4336 47.8284 82.4336L67.1562 72.8714C67.1562 72.8714 57.7407 81.2911 53.1199 85.3892C56.1756 84.0232 62.8086 82.9055 62.8086 82.9055C62.8086 82.9055 56.5234 90.0089 53.2441 92.8154C57.5916 93.9331 66.5102 94.256 66.5102 94.256Z" fill="#1E1F23" />
    <path d="M60.0511 21.5336C60.4485 24.8369 62.436 24.8369 63.4794 24.8369C63.4297 22.5767 68.3486 18.429 70.0876 17.4603C70.7086 17.1126 81.9625 15.0015 82.4842 14.8773C83.2543 14.6786 84.2728 11.3008 82.2606 10.9779C81.3662 9.78573 76.5716 0.0496738 74.9319 0C74.6835 0 74.2363 0.322879 73.814 0.645759C73.491 0.894128 73.1929 1.1425 73.019 1.21701C71.4042 1.96211 69.5907 2.21048 67.8517 2.38434C66.1624 2.5582 61.3677 1.96211 59.0077 2.78173C58.5605 2.93075 58.2127 3.12945 57.9891 3.40265C57.0699 4.47064 58.1133 4.6445 58.0139 5.73732C57.8897 6.92949 57.2687 7.97264 57.1693 9.21448C56.9209 12.2446 56.0017 16.6407 59.0077 19.6708C59.6287 20.1179 59.902 20.6891 60.0511 21.5336Z" fill="#B50202" />
    <path d="M59.0068 2.7819C60.721 5.04206 62.3109 4.74402 65.0685 5.46429C67.3044 6.06037 70.3103 7.2277 72.3475 7.94797C70.7327 8.04732 68.8446 8.22118 67.4037 8.66824C70.0619 10.233 80.322 12.8905 80.0736 8.66824C79.8997 5.96102 76.5956 2.13614 73.838 0.621094C73.5151 0.869463 73.217 1.11783 73.0431 1.19234C71.4283 1.93745 69.6147 2.18582 67.8757 2.35968C66.1864 2.53353 61.3918 1.93745 59.0317 2.75707L59.0068 2.7819Z" fill="#CA0101" />
    <path d="M62.5351 82.21C62.0631 81.5394 60.2248 80.4466 60.2248 80.4466C59.082 80.0741 56.7468 80.4466 55.4798 80.993C54.337 81.4649 57.4175 83.5512 58.4858 83.0793C58.8087 83.5264 59.6782 83.9238 60.0757 84.048C60.8955 84.2963 61.5414 83.9735 62.1625 83.427C62.6594 82.98 62.9078 82.7564 62.5103 82.21H62.5351Z" fill="#CA0101" />
    <path d="M47.8526 207.785C47.4303 207.736 47.1074 207.363 47.1322 206.916L48.2998 194.324C48.3495 193.877 48.7221 193.579 49.1693 193.603C49.6165 193.653 49.9146 194.026 49.8898 194.473L48.7221 207.065C48.6725 207.512 48.2998 207.81 47.8526 207.785Z" fill="#141F23" />
    <path d="M51.2813 202.769C52.8216 203.861 52.6725 205.352 50.9584 206.146C49.2442 206.916 46.6357 206.693 45.0955 205.6C43.58 204.507 43.7043 203.017 45.4184 202.222C47.1326 201.427 49.7411 201.676 51.2813 202.769Z" fill="#253137" />
    <path d="M50.2131 203.24C51.2317 203.961 51.1323 204.954 50.0144 205.476C48.8964 205.997 47.1574 205.823 46.1637 205.103C45.1452 204.383 45.2445 203.389 46.3625 202.868C47.4804 202.346 49.2194 202.52 50.2131 203.215V203.24Z" fill="#070709" />
    <path d="M48.2006 204.184C47.7286 204.134 47.3808 203.737 47.4305 203.265L59.2309 76.7957C59.2806 76.3238 59.678 75.976 60.1501 76.0257C60.6221 76.0754 60.9699 76.4728 60.9202 76.9447L49.1198 203.414C49.0701 203.886 48.6727 204.234 48.2006 204.184Z" fill="#303E44" />
    <path d="M58.2617 96.1189C57.6903 96.0692 57.2432 95.5476 57.2928 94.9764L58.9822 76.7709C59.0318 76.1749 59.5535 75.7526 60.1249 75.8023C60.7212 75.852 61.1435 76.3736 61.0938 76.9696L59.4045 95.1751C59.3548 95.7712 58.8331 96.1934 58.2369 96.1437L58.2617 96.1189Z" fill="#08181E" />
    <path d="M60.8458 76.8702C60.821 77.1931 60.5477 77.4166 60.2248 77.3918C59.9018 77.3669 59.6782 77.0689 59.7031 76.7708C59.7279 76.4728 60.0012 76.2244 60.3241 76.2493C60.6471 76.2741 60.8707 76.5722 60.8458 76.8702Z" fill="#253137" />
    <path d="M63.9261 82.8309C63.2802 82.4087 62.361 82.4832 61.4667 82.4584C57.939 80.4466 52.4487 80.6453 52.9456 85.4139C53.4921 90.5303 60.4233 93.7343 63.4541 88.7173C64.1 87.6741 64.2988 86.7055 64.1746 85.8362C64.7211 84.7682 65.0689 83.576 63.9013 82.8309H63.9261Z" fill="#474246" />
    <path d="M62.6091 86.0598C62.2613 82.0114 57.9386 81.8624 54.7339 81.7134C53.5166 82.3095 52.7465 83.4768 52.9452 85.4141C53.3924 89.6612 58.2864 92.5919 61.6402 90.5553C62.2613 89.0899 62.7085 87.55 62.5843 86.0598H62.6091Z" fill="#CA0101" />
    <path d="M55.0076 79.354C52.9208 78.286 47.9025 72.4493 44.0519 70.363C43.9028 70.1643 42.3129 70.8101 42.1638 70.6114C44.0519 68.3264 45.9648 66.4884 51.306 54.9641C54.3368 48.432 49.0204 41.3287 47.3808 40.5588C44.3003 39.2921 27.0096 64.5263 27.4071 70.1395C27.8046 75.3801 31.8292 80.2481 37.7915 83.7749C43.4556 87.1279 52.0513 91.0521 53.4921 88.022C52.9456 87.0534 54.933 81.6886 55.4796 80.9683C55.5789 80.8442 55.3802 79.5278 54.9827 79.3291L55.0076 79.354Z" fill="#2B3A3F" />
    <path d="M82.6828 6.06025C82.6083 5.88639 82.5089 5.68769 82.4095 5.51384C82.2605 5.26547 82.0866 5.0171 81.8878 4.76873C81.5897 4.42101 81.2667 4.09813 80.8444 3.8746C80.3724 3.62623 79.8507 3.55172 79.329 3.47721C78.7328 3.4027 78.1365 3.35303 77.5403 3.35303C76.2982 3.35303 75.0312 3.47721 73.789 3.67591C73.4412 3.72558 73.0686 3.80009 72.7208 3.8746C71.1557 4.19748 69.5906 4.52036 68.2739 5.489C67.9261 5.73737 67.628 6.01057 67.3299 6.33345C66.5846 7.12823 65.9635 8.07203 65.74 9.14002C65.5909 9.76094 65.5412 10.506 65.5909 11.1518C65.7151 12.5675 66.5101 15.2996 68.8702 15.4486C69.8142 15.5231 70.7831 15.2251 71.6277 14.8028C72.696 14.2813 73.789 13.6107 74.5592 12.6917C75.1057 12.0459 75.4784 11.3505 75.7516 10.5806C75.9752 9.9348 76.1491 9.18969 76.5218 8.59361C76.646 8.39491 76.8447 8.17138 77.0683 8.12171C78.0869 7.89818 79.0557 8.91649 80.0246 9.66159C80.7699 10.2328 81.4655 10.6302 82.2853 10.9283C82.7325 10.208 82.9561 9.31388 83.0306 8.49426C83.1051 7.64981 83.0306 6.80535 82.7076 6.01057L82.6828 6.06025Z" fill="#1E1F23" />
    <path d="M65.5905 11.1768L64.249 12.816L65.988 15.4735L68.1742 14.6042L65.5905 11.1768Z" fill="#1E1F23" />
    <path d="M59.0068 19.671L64.7704 12.8657L66.2113 14.6043L60.0502 21.5338L59.0068 19.671Z" fill="#1E1F23" />
    <path d="M70.2358 9.76079C71.1798 7.79867 72.1239 5.81172 73.0679 3.84961C72.9437 3.84961 72.8443 3.89928 72.7201 3.92412H72.6704C71.6767 5.96074 70.7327 7.99737 69.8135 10.0588C69.9625 9.95948 70.0867 9.86013 70.2358 9.76079Z" fill="#E0F7FA" />
    <path d="M76.8197 3.42725C75.9005 3.45208 75.0062 3.52659 74.1119 3.67561C73.2424 5.48871 72.348 7.3018 71.4785 9.11489C72.5964 8.09658 73.8883 7.3018 75.3043 6.78022C75.8012 5.66257 76.298 4.54491 76.8197 3.42725Z" fill="#E0F7FA" />
    <path d="M78.3347 3.45251C78.1359 3.45251 77.962 3.40283 77.7633 3.40283C77.2913 4.42114 76.8192 5.43946 76.3721 6.4826C76.5957 6.43293 76.8441 6.38326 77.0677 6.35842C77.49 5.38978 77.9123 4.42114 78.3347 3.45251Z" fill="#E0F7FA" />
    <path d="M82.6827 6.06028C82.6082 5.88642 82.5088 5.68773 82.4094 5.51387C82.2604 5.2655 82.0865 5.01713 81.8877 4.76876C81.5896 4.42105 81.2667 4.09817 80.8443 3.87464C80.5214 3.70078 80.1487 3.60143 79.7761 3.55176C79.3289 4.44589 78.8817 5.34001 78.4346 6.23414C79.8506 6.23414 81.4654 6.408 82.9311 6.92957C82.8814 6.63153 82.7821 6.30865 82.6827 6.03545V6.06028Z" fill="#E0F7FA" />
    <path d="M68.5968 10.7297C69.5905 8.51924 70.5842 6.33359 71.6524 4.14795C71.255 4.2473 70.8575 4.34664 70.46 4.47083C69.3172 7.00419 68.1496 9.56239 67.0068 12.0957C67.5285 11.6238 68.0502 11.1519 68.6216 10.7049L68.5968 10.7297Z" fill="#E0F7FA" />
  </g>
  <defs>
    <clipPath id="clip0_1415_1959">
      <rect width="166" height="236" fill="white" transform="translate(0.253906)" />
    </clipPath>
  </defs>
</svg>
