<svg width="20" height="20" viewBox="0 0 21 22" fill="none" xmlns="http://www.w3.org/2000/svg">
  <path d="M14.558 8V5C14.558 2.79086 12.7671 1 10.558 1C8.34885 1 6.55799 2.79086 6.55799 5V8M2.14999 9.35196L1.54999 15.752C1.37939 17.5717 1.29409 18.4815 1.59604 19.1843C1.86128 19.8016 2.3261 20.3121 2.91601 20.6338C3.58751 21 4.50135 21 6.32903 21H14.7869C16.6146 21 17.5285 21 18.2 20.6338C18.7899 20.3121 19.2547 19.8016 19.5199 19.1843C19.8219 18.4815 19.7366 17.5717 19.566 15.752L18.966 9.35197C18.8219 7.81535 18.7499 7.04704 18.4043 6.46616C18.1 5.95458 17.6503 5.54511 17.1126 5.28984C16.502 5 15.7303 5 14.1869 5L6.92903 5C5.38568 5 4.614 5 4.00341 5.28984C3.46565 5.54511 3.01599 5.95458 2.71165 6.46616C2.36608 7.04704 2.29405 7.81534 2.14999 9.35196Z" stroke="currentColor" stroke-linecap="round" stroke-linejoin="round" />
</svg>
