<svg width="39" height="50" viewBox="0 0 39 50" fill="none" xmlns="http://www.w3.org/2000/svg">
  <g clip-path="url(#clip0_2594_1536)">
    <path d="M38.8624 1.08865L36.9961 4.89891L35.1299 8.70918C35.1299 8.70918 34.9743 8.94246 34.8188 9.09798C34.8188 9.09798 34.6633 9.09798 34.5855 9.17574C34.5855 9.17574 34.5078 9.17574 34.43 9.17574C34.43 9.17574 34.3523 9.17574 34.2745 9.17574C34.119 9.17574 33.9635 9.17574 33.8079 9.02022C33.6524 8.8647 33.5746 8.70918 33.5746 8.4759C33.5746 8.16485 33.4969 7.77605 33.4191 7.30949C33.4191 7.07621 33.4191 6.76516 33.4191 6.53188C33.3414 5.75428 33.1081 4.97667 32.6415 4.19907C32.175 3.42146 31.5529 2.87714 30.9308 2.5661C30.3087 2.1773 29.6866 1.86625 29.2978 1.55521C29.1423 1.39969 28.9868 1.24417 28.9868 1.01089C28.9868 0.777607 28.9868 0.622086 28.9868 0.388804C28.9868 0.388804 29.1423 0.155523 29.2978 0.0777622C29.4533 1.71363e-06 29.6089 -0.0777588 29.7644 -0.0777588H38.318C38.318 -0.0777588 38.7846 1.71363e-06 38.8624 0.233283C39.0179 0.466565 39.0179 0.699846 38.8624 1.01089V1.08865Z" fill="black" />
    <path d="M27.1205 26.1275L18.7224 45.0233C18.7224 45.0233 18.0225 46.6563 16.3896 48.056C15.1454 49.0669 13.4347 50 11.1019 50C9.77994 50 8.22473 49.689 6.35848 48.9114C4.25894 48.056 2.85925 46.9673 1.92613 45.8009C-1.33981 41.9129 0.68196 37.1695 0.68196 37.1695L15.612 3.49922C15.612 3.49922 15.612 2.9549 15.4565 2.72162C14.8344 2.17729 14.3678 1.78849 13.979 1.55521C13.7457 1.39969 13.668 1.16641 13.668 0.933126C13.668 0.777605 13.668 0.699844 13.668 0.544324C13.7457 0.311042 13.979 0 14.3678 0H25.332C25.8764 0 26.2652 0.544324 26.0319 1.01089C23.6213 6.53188 11.9572 32.8927 9.15785 39.1913C8.53577 40.5132 9.62442 41.0575 9.70218 41.0575C10.9463 41.6019 11.5684 40.2799 11.5684 40.2799L22.2994 15.9409C22.2994 15.9409 22.6104 15.3966 22.8437 15.3188C22.9215 15.2411 23.077 15.1633 23.2325 15.1633C23.388 15.1633 23.4658 15.1633 23.6213 15.2411C25.021 15.8631 26.0319 16.7185 26.7317 17.5739C29.2978 21.0731 27.1205 25.972 27.1205 25.972V26.1275Z" fill="black" />
  </g>
  <defs>
    <clipPath id="clip0_2594_1536">
      <rect width="38.8802" height="50" fill="white" transform="translate(0.0598755)" />
    </clipPath>
  </defs>
</svg>
