<svg width="44" height="32" viewBox="0 0 44 32" fill="none" xmlns="http://www.w3.org/2000/svg">
  <path d="M42 12H2M20 20H10M2 8.4L2 23.6C2 25.8402 2 26.9603 2.43597 27.816C2.81947 28.5686 3.43139 29.1805 4.18404 29.564C5.03968 30 6.15979 30 8.4 30L35.6 30C37.8402 30 38.9603 30 39.816 29.564C40.5686 29.1805 41.1805 28.5686 41.564 27.816C42 26.9603 42 25.8402 42 23.6V8.4C42 6.15979 42 5.03969 41.564 4.18404C41.1805 3.43139 40.5686 2.81947 39.816 2.43598C38.9603 2 37.8402 2 35.6 2L8.4 2C6.15979 2 5.03969 2 4.18404 2.43597C3.43139 2.81947 2.81947 3.43139 2.43597 4.18404C2 5.03968 2 6.15979 2 8.4Z" stroke="currentColor" stroke-width="4" stroke-linecap="round" stroke-linejoin="round" />
</svg>
