<svg width="20" height="20" viewBox="0 0 21 20" fill="none" xmlns="http://www.w3.org/2000/svg">
  <path d="M7.27441 9.25L10.2744 12.25L20.2744 2.25M14.2744 1.25H6.07441C4.39426 1.25 3.55418 1.25 2.91244 1.57698C2.34796 1.8646 1.88901 2.32354 1.60139 2.88803C1.27441 3.52976 1.27441 4.36984 1.27441 6.05V14.45C1.27441 16.1302 1.27441 16.9702 1.60139 17.612C1.88901 18.1765 2.34796 18.6354 2.91244 18.923C3.55418 19.25 4.39426 19.25 6.07441 19.25H14.4744C16.1546 19.25 16.9947 19.25 17.6364 18.923C18.2009 18.6354 18.6598 18.1765 18.9474 17.612C19.2744 16.9702 19.2744 16.1302 19.2744 14.45V10.25" stroke="currentColor" stroke-linecap="round" stroke-linejoin="round" />
</svg>
