<svg width="20" height="20" viewBox="0 0 20 20" fill="none" xmlns="http://www.w3.org/2000/svg">
  <path d="M2.05968 3.56973C1.36248 2.72441 1.01388 2.30175 1.00073 1.94254C0.989305 1.6305 1.11292 1.33058 1.3349 1.13175C1.59043 0.902863 2.11323 0.902863 3.15883 0.902863H16.8412C17.8868 0.902863 18.4096 0.902863 18.6651 1.13175C18.8871 1.33058 19.0107 1.6305 18.9993 1.94254C18.9861 2.30175 18.6375 2.72441 17.9403 3.56973L12.6803 9.94729C12.5413 10.1158 12.4718 10.2001 12.4222 10.2959C12.3783 10.381 12.3461 10.4725 12.3265 10.5677C12.3045 10.675 12.3045 10.7881 12.3045 11.0142V16.3612C12.3045 16.5568 12.3045 16.6546 12.2754 16.7391C12.2498 16.8138 12.208 16.8808 12.1536 16.9344C12.092 16.9951 12.0083 17.0314 11.841 17.104L8.70681 18.464C8.368 18.611 8.1986 18.6845 8.06261 18.6539C7.94369 18.6271 7.83933 18.5504 7.77222 18.4406C7.69548 18.315 7.69548 18.1171 7.69548 17.7212V11.0142C7.69548 10.7881 7.69548 10.675 7.67347 10.5677C7.65395 10.4725 7.6217 10.381 7.57776 10.2959C7.52821 10.2001 7.45872 10.1158 7.31974 9.94729L2.05968 3.56973Z" stroke="currentColor" stroke-linecap="round" stroke-linejoin="round"/>
</svg>
