<svg width="336" height="54" viewBox="0 0 336 54" fill="none" xmlns="http://www.w3.org/2000/svg">
<g clip-path="url(#clip0_3547_2266)">
<path d="M39.238 16.3156C39.238 22.9741 34.6856 26.0153 34.6856 26.0153C34.6856 26.0153 40.2816 29.406 40.3005 37.1223C40.3335 47.8703 34.6053 53.7874 20.2447 53.8252L0.14167 53.8819L0 0.911348L21.6519 0.849957C33.5286 0.821623 39.1954 6.61122 39.238 16.3156ZM13.147 12.8305L13.1706 21.0805H21.6331C24.5798 21.0805 26.1287 19.4796 26.1193 16.9059C26.1193 14.71 24.9481 12.8211 22.2281 12.8305H13.147ZM13.2226 41.9627H20.5186C25.562 41.9627 26.7993 40.1304 26.7946 36.9523C26.7946 34.3786 25.6943 32.263 21.6567 32.2724L13.2226 32.2772V41.9627Z" fill="black"/>
<path d="M78.509 53.6695L65.2392 53.7026L65.0928 0.732031L78.3909 0.698975L78.509 53.6695Z" fill="black"/>
<path d="M187.123 53.1971L173.853 53.2301L173.707 0.259619L187.005 0.226562L187.123 53.1971Z" fill="black"/>
<path d="M125.511 39.5403L135.9 0.54315L149.637 0.505371L133.17 53.5184L117.959 53.5609L101.19 0.637597L114.852 0.599818L125.511 39.5403Z" fill="black"/>
<path d="M257.004 0.212402L257.099 35.3986C257.132 45.9955 247.682 53.9668 234.875 53.9999C221.837 54.033 212.501 46.1136 212.472 35.5214L212.378 0.335183L225.648 0.297405L225.728 34.9452C225.728 39.5637 229.473 42.1988 234.828 42.1846C240.183 42.1704 243.904 39.5873 243.89 34.898L243.81 0.250181L257.004 0.212402Z" fill="black"/>
<path d="M335.376 52.9705L322.102 53.0036L322.031 26.9174L323.093 18.3652H322.786L320.548 24.032L314.678 34.2606L304.199 34.2889L298.532 24.2398L296.171 18.4171H295.864L296.974 27.196L297.045 53.0744L283.77 53.1122L283.619 0.14167L297.201 0.103892L309.446 22.2422L321.648 0.0472234L335.23 0L335.376 52.9705Z" fill="black"/>
</g>
<defs>
<clipPath id="clip0_3547_2266">
<rect width="335.376" height="54" fill="white"/>
</clipPath>
</defs>
</svg>
