<svg width="48" height="48" viewBox="0 0 48 48" fill="none" xmlns="http://www.w3.org/2000/svg">
  <g clip-path="url(#clip0_1485_2059)">
    <path d="M24 4.33127C30.4125 4.33127 31.1719 4.3594 33.6938 4.4719C36.0375 4.57502 37.3031 4.96877 38.1469 5.2969C39.2625 5.72815 40.0688 6.25315 40.9031 7.08752C41.7469 7.93127 42.2625 8.72815 42.6938 9.84377C43.0219 10.6875 43.4156 11.9625 43.5188 14.2969C43.6313 16.8281 43.6594 17.5875 43.6594 23.9907C43.6594 30.4032 43.6313 31.1625 43.5188 33.6844C43.4156 36.0282 43.0219 37.2938 42.6938 38.1375C42.2625 39.2532 41.7375 40.0594 40.9031 40.8938C40.0594 41.7375 39.2625 42.2532 38.1469 42.6844C37.3031 43.0125 36.0281 43.4063 33.6938 43.5094C31.1625 43.6219 30.4031 43.65 24 43.65C17.5875 43.65 16.8281 43.6219 14.3063 43.5094C11.9625 43.4063 10.6969 43.0125 9.85313 42.6844C8.7375 42.2532 7.93125 41.7281 7.09688 40.8938C6.25313 40.05 5.7375 39.2532 5.30625 38.1375C4.97813 37.2938 4.58438 36.0188 4.48125 33.6844C4.36875 31.1532 4.34063 30.3938 4.34063 23.9907C4.34063 17.5781 4.36875 16.8188 4.48125 14.2969C4.58438 11.9531 4.97813 10.6875 5.30625 9.84377C5.7375 8.72815 6.2625 7.9219 7.09688 7.08752C7.94063 6.24377 8.7375 5.72815 9.85313 5.2969C10.6969 4.96877 11.9719 4.57502 14.3063 4.4719C16.8281 4.3594 17.5875 4.33127 24 4.33127ZM24 0.00939941C17.4844 0.00939941 16.6688 0.0375244 14.1094 0.150024C11.5594 0.262524 9.80625 0.675024 8.2875 1.26565C6.70312 1.8844 5.3625 2.70002 4.03125 4.04065C2.69063 5.3719 1.875 6.71253 1.25625 8.28753C0.665625 9.81565 0.253125 11.5594 0.140625 14.1094C0.028125 16.6781 0 17.4938 0 24.0094C0 30.525 0.028125 31.3406 0.140625 33.9C0.253125 36.45 0.665625 38.2032 1.25625 39.7219C1.875 41.3063 2.69063 42.6469 4.03125 43.9781C5.3625 45.3094 6.70313 46.1344 8.27813 46.7438C9.80625 47.3344 11.55 47.7469 14.1 47.8594C16.6594 47.9719 17.475 48 23.9906 48C30.5063 48 31.3219 47.9719 33.8813 47.8594C36.4313 47.7469 38.1844 47.3344 39.7031 46.7438C41.2781 46.1344 42.6188 45.3094 43.95 43.9781C45.2812 42.6469 46.1063 41.3063 46.7156 39.7313C47.3063 38.2032 47.7188 36.4594 47.8313 33.9094C47.9438 31.35 47.9719 30.5344 47.9719 24.0188C47.9719 17.5032 47.9438 16.6875 47.8313 14.1281C47.7188 11.5781 47.3063 9.82502 46.7156 8.30627C46.125 6.71252 45.3094 5.3719 43.9688 4.04065C42.6375 2.7094 41.2969 1.8844 39.7219 1.27502C38.1938 0.684399 36.45 0.271899 33.9 0.159399C31.3313 0.0375244 30.5156 0.00939941 24 0.00939941Z" fill="currentColor" />
    <path d="M24 11.6813C17.1938 11.6813 11.6719 17.2031 11.6719 24.0094C11.6719 30.8156 17.1938 36.3375 24 36.3375C30.8062 36.3375 36.3281 30.8156 36.3281 24.0094C36.3281 17.2031 30.8062 11.6813 24 11.6813ZM24 32.0063C19.5844 32.0063 16.0031 28.425 16.0031 24.0094C16.0031 19.5938 19.5844 16.0125 24 16.0125C28.4156 16.0125 31.9969 19.5938 31.9969 24.0094C31.9969 28.425 28.4156 32.0063 24 32.0063Z" fill="currentColor" />
    <path d="M39.6937 11.1937C39.6937 12.7874 38.4 14.0718 36.8156 14.0718C35.2219 14.0718 33.9375 12.7781 33.9375 11.1937C33.9375 9.59993 35.2313 8.31555 36.8156 8.31555C38.4 8.31555 39.6937 9.6093 39.6937 11.1937Z" fill="currentColor" />
  </g>
  <defs>
    <clipPath id="clip0_1485_2059">
      <rect width="48" height="48" fill="currentColor" transform="translate(0 0.00939941)" />
    </clipPath>
  </defs>
</svg>
