<svg width="18" height="20" viewBox="0 0 18 20" fill="none" xmlns="http://www.w3.org/2000/svg">
  <path d="M14 8.13403V6.13403C14 3.37261 11.7614 1.13403 9 1.13403C6.23858 1.13403 4 3.37261 4 6.13403V8.13403M9 12.634V14.634M5.8 19.134H12.2C13.8802 19.134 14.7202 19.134 15.362 18.8071C15.9265 18.5194 16.3854 18.0605 16.673 17.496C17 16.8543 17 16.0142 17 14.334V12.934C17 11.2539 17 10.4138 16.673 9.77206C16.3854 9.20758 15.9265 8.74863 15.362 8.46101C14.7202 8.13403 13.8802 8.13403 12.2 8.13403H5.8C4.11984 8.13403 3.27976 8.13403 2.63803 8.46101C2.07354 8.74863 1.6146 9.20758 1.32698 9.77206C1 10.4138 1 11.2539 1 12.934V14.334C1 16.0142 1 16.8543 1.32698 17.496C1.6146 18.0605 2.07354 18.5194 2.63803 18.8071C3.27976 19.134 4.11984 19.134 5.8 19.134Z" stroke="currentColor" stroke-linecap="round" stroke-linejoin="round" />
</svg>
