<svg width="39" height="50" viewBox="0 0 39 50" fill="none" xmlns="http://www.w3.org/2000/svg">
  <path d="M38.9222 1.08865L37.056 4.89891L35.1897 8.70918C35.1897 8.70918 35.0342 8.94246 34.8787 9.09798C34.8787 9.09798 34.7231 9.09798 34.6454 9.17574C34.6454 9.17574 34.5676 9.17574 34.4899 9.17574C34.4899 9.17574 34.4121 9.17574 34.3343 9.17574C34.1788 9.17574 34.0233 9.17574 33.8678 9.02022C33.7123 8.8647 33.6345 8.70918 33.6345 8.4759C33.6345 8.16485 33.5567 7.77605 33.479 7.30949C33.479 7.07621 33.479 6.76516 33.479 6.53188C33.4012 5.75428 33.1679 4.97667 32.7014 4.19907C32.2348 3.42146 31.6127 2.87714 30.9906 2.5661C30.3686 2.1773 29.7465 1.86625 29.3577 1.55521C29.2022 1.39969 29.0466 1.24417 29.0466 1.01089C29.0466 0.777607 29.0466 0.622086 29.0466 0.388804C29.0466 0.388804 29.2022 0.155523 29.3577 0.0777622C29.5132 1.71363e-06 29.6687 -0.0777588 29.8242 -0.0777588H38.3779C38.3779 -0.0777588 38.8445 1.71363e-06 38.9222 0.233283C39.0777 0.466565 39.0777 0.699846 38.9222 1.01089V1.08865Z" fill="currentColor" />
  <path d="M27.1803 26.1275L18.7822 45.0233C18.7822 45.0233 18.0823 46.6563 16.4494 48.056C15.2052 49.0669 13.4945 50 11.1617 50C9.83973 50 8.28452 49.689 6.41827 48.9114C4.31873 48.056 2.91905 46.9673 1.98592 45.8009C-1.28002 41.9129 0.741751 37.1695 0.741751 37.1695L15.6718 3.49922C15.6718 3.49922 15.6718 2.9549 15.5162 2.72162C14.8942 2.17729 14.4276 1.78849 14.0388 1.55521C13.8055 1.39969 13.7278 1.16641 13.7278 0.933126C13.7278 0.777605 13.7278 0.699844 13.7278 0.544324C13.8055 0.311042 14.0388 0 14.4276 0H25.3918C25.9362 0 26.325 0.544324 26.0917 1.01089C23.6811 6.53188 12.017 32.8927 9.21764 39.1913C8.59556 40.5132 9.68421 41.0575 9.76197 41.0575C11.0061 41.6019 11.6282 40.2799 11.6282 40.2799L22.3592 15.9409C22.3592 15.9409 22.6702 15.3966 22.9035 15.3188C22.9813 15.2411 23.1368 15.1633 23.2923 15.1633C23.4478 15.1633 23.5256 15.1633 23.6811 15.2411C25.0808 15.8631 26.0917 16.7185 26.7915 17.5739C29.3576 21.0731 27.1803 25.972 27.1803 25.972V26.1275Z" fill="currentColor" />
</svg>
