<svg width="34" height="33" viewBox="0 0 34 33" fill="none" xmlns="http://www.w3.org/2000/svg">
    <path d="M19.7903 2.19713L31.8352 10.0263C32.2608 10.3029 32.4736 10.4412 32.6278 10.6257C32.7642 10.7891 32.8668 10.978 32.9293 11.1814C33 11.4113 33 11.6651 33 12.1727V23.9034C33 26.5917 33 27.9358 32.4768 28.9626C32.0166 29.8657 31.2823 30.6 30.3792 31.0602C29.3524 31.5834 28.0083 31.5834 25.32 31.5834H8.68C5.99175 31.5834 4.64762 31.5834 3.62085 31.0602C2.71767 30.6 1.98336 29.8657 1.52317 28.9626C1 27.9358 1 26.5917 1 23.9034V12.1727C1 11.6651 1 11.4113 1.07067 11.1814C1.13323 10.978 1.23575 10.7891 1.37224 10.6257C1.52642 10.4412 1.73922 10.3029 2.16483 10.0263L14.2097 2.19713M19.7903 2.19713C18.7803 1.54063 18.2754 1.21239 17.7312 1.08467C17.2503 0.971777 16.7497 0.971777 16.2688 1.08467C15.7246 1.21239 15.2196 1.54063 14.2097 2.19713M19.7903 2.19713L31.3489 9.7102C31.8992 10.0679 32.1743 10.2467 32.2696 10.4735C32.3529 10.6717 32.3529 10.8951 32.2696 11.0933C32.1743 11.3201 31.8992 11.4989 31.3489 11.8566L19.7903 19.3697C18.7804 20.0262 18.2754 20.3544 17.7312 20.4821C17.2503 20.595 16.7497 20.595 16.2688 20.4821C15.7246 20.3544 15.2196 20.0262 14.2097 19.3697L2.65109 11.8566C2.10081 11.4989 1.82567 11.3201 1.73038 11.0933C1.6471 10.8951 1.6471 10.6717 1.73038 10.4735C1.82567 10.2467 2.10081 10.0679 2.65109 9.7102L14.2097 2.19713" stroke="black" stroke-linecap="round" stroke-linejoin="round"/>
</svg>
