<svg width="22" height="17" viewBox="0 0 22 17" fill="none" xmlns="http://www.w3.org/2000/svg">
  <path d="M1.27441 3.5L9.43933 9.21544C10.1005 9.67826 10.4311 9.90967 10.7907 9.99931C11.1083 10.0785 11.4405 10.0785 11.7582 9.99931C12.1177 9.90967 12.4483 9.67826 13.1095 9.21544L21.2744 3.5M6.07441 16.5H16.4744C18.1546 16.5 18.9946 16.5 19.6364 16.173C20.2009 15.8854 20.6598 15.4265 20.9474 14.862C21.2744 14.2202 21.2744 13.3802 21.2744 11.7V5.3C21.2744 3.61984 21.2744 2.77976 20.9474 2.13803C20.6598 1.57354 20.2009 1.1146 19.6364 0.82698C18.9946 0.5 18.1546 0.5 16.4744 0.5H6.07441C4.39426 0.5 3.55418 0.5 2.91244 0.82698C2.34796 1.1146 1.88901 1.57354 1.60139 2.13803C1.27441 2.77976 1.27441 3.61984 1.27441 5.3V11.7C1.27441 13.3802 1.27441 14.2202 1.60139 14.862C1.88901 15.4265 2.34796 15.8854 2.91244 16.173C3.55418 16.5 4.39426 16.5 6.07441 16.5Z" stroke="currentColor" stroke-linecap="round" stroke-linejoin="round" />
</svg>
