<svg width="54" height="16" viewBox="0 0 54 16" fill="none" xmlns="http://www.w3.org/2000/svg">
  <path d="M48.2499 0.25H37.95C38.55 3.65 41.85 6.85001 45.45 6.85001H53.65C53.75 6.55001 53.7499 6.05 53.7499 5.75C53.7499 2.75 51.2499 0.25 48.2499 0.25Z" fill="url(#paint0_linear_1546_4390)" />
  <path d="M38.8501 7.44995V15.7499H43.8501V11.3499H48.2501C50.6501 11.3499 52.7501 9.64995 53.4501 7.44995H38.8501Z" fill="#4FAD50" />
  <path d="M21.25 0.25V15.65H25.65C25.65 15.65 26.75 15.65 27.35 14.55C30.35 8.65 31.25 6.85001 31.25 6.85001H31.85V15.65H36.85V0.25H32.45C32.45 0.25 31.35 0.350006 30.75 1.35001C28.25 6.45001 26.85 9.05 26.85 9.05H26.25V0.25H21.25Z" fill="#4FAD50" />
  <path d="M0.25 15.75V0.349976H5.25C5.25 0.349976 6.65001 0.349972 7.45001 2.54997C9.45001 8.34997 9.65002 9.14998 9.65002 9.14998C9.65002 9.14998 10.05 7.74997 11.85 2.54997C12.65 0.349972 14.05 0.349976 14.05 0.349976H19.05V15.75H14.05V7.44998H13.45L10.65 15.75H8.45001L5.65002 7.44998H5.05002V15.75H0.25Z" fill="#4FAD50" />
  <defs>
    <linearGradient id="paint0_linear_1546_4390" x1="37.9322" y1="3.5973" x2="53.7145" y2="3.5973" gradientUnits="userSpaceOnUse">
      <stop stop-color="#27B1E6" />
      <stop offset="1" stop-color="#148ACA" />
    </linearGradient>
  </defs>
</svg>
