<svg width="20" height="20" viewBox="0 0 22 22" fill="none" xmlns="http://www.w3.org/2000/svg">
  <path d="M7.02479 7.89997C7.74303 9.39591 8.72213 10.798 9.96211 12.0379C11.2021 13.2779 12.6041 14.257 14.1001 14.9753C14.2288 15.037 14.2931 15.0679 14.3745 15.0917C14.6638 15.176 15.0191 15.1154 15.2641 14.94C15.333 14.8906 15.392 14.8316 15.51 14.7137C15.8708 14.3529 16.0512 14.1725 16.2326 14.0546C16.9166 13.6098 17.7985 13.6098 18.4826 14.0546C18.664 14.1725 18.8444 14.3529 19.2052 14.7137L19.4062 14.9148C19.9547 15.4632 20.2289 15.7374 20.3778 16.0319C20.6741 16.6176 20.6741 17.3093 20.3778 17.895C20.2289 18.1895 19.9547 18.4637 19.4062 19.0121L19.2436 19.1748C18.697 19.7213 18.4238 19.9946 18.0522 20.2033C17.6399 20.4349 16.9996 20.6014 16.5268 20.6C16.1006 20.5987 15.8094 20.5161 15.2269 20.3508C12.0966 19.4623 9.14274 17.7859 6.67845 15.3216C4.21416 12.8573 2.53777 9.90348 1.64929 6.77316C1.48396 6.19067 1.4013 5.89943 1.40003 5.47329C1.39863 5.00042 1.56514 4.3601 1.79674 3.94783C2.00545 3.57629 2.27872 3.30302 2.82527 2.75647L2.98794 2.5938C3.53636 2.04538 3.81058 1.77116 4.10508 1.62221C4.69078 1.32596 5.38246 1.32596 5.96816 1.62221C6.26266 1.77116 6.53687 2.04538 7.08529 2.5938L7.28639 2.7949C7.64717 3.15568 7.82756 3.33606 7.9455 3.51746C8.39026 4.20153 8.39026 5.08342 7.9455 5.7675C7.82756 5.94889 7.64717 6.12928 7.28639 6.49006C7.16843 6.60802 7.10944 6.66701 7.06007 6.73595C6.88463 6.98097 6.82405 7.33623 6.90839 7.62554C6.93212 7.70695 6.96301 7.77129 7.02479 7.89997Z" stroke="currentColor" stroke-linecap="round" stroke-linejoin="round" />
</svg>
