<svg width="20" height="20" viewBox="0 0 20 19" fill="none" xmlns="http://www.w3.org/2000/svg">
  <path d="M14.2 0.5H5.8C4.11984 0.5 3.27976 0.5 2.63803 0.82698C2.07354 1.1146 1.6146 1.57354 1.32698 2.13803C1 2.77976 1 3.61984 1 5.3V13.7C1 15.3802 1 16.2202 1.32698 16.862C1.6146 17.4265 2.07354 17.8854 2.63803 18.173C3.27976 18.5 4.11984 18.5 5.8 18.5H14.2C15.8802 18.5 16.7202 18.5 17.362 18.173C17.9265 17.8854 18.3854 17.4265 18.673 16.862C19 16.2202 19 15.3802 19 13.7V5.3C19 3.61984 19 2.77976 18.673 2.13803C18.3854 1.57354 17.9265 1.1146 17.362 0.82698C16.7202 0.5 15.8802 0.5 14.2 0.5Z" stroke="currentColor" stroke-linecap="round" stroke-linejoin="round" />
</svg>
