<svg width="48" height="48" viewBox="0 0 48 48" fill="none" xmlns="http://www.w3.org/2000/svg">
  <g clip-path="url(#clip0_1485_2058)">
    <path fill-rule="evenodd" clip-rule="evenodd" d="M48 24.0094C48 37.2642 37.2548 48.0094 24 48.0094C10.7452 48.0094 0 37.2642 0 24.0094C0 10.7546 10.7452 0.00939941 24 0.00939941C37.2548 0.00939941 48 10.7546 48 24.0094ZM24.8601 17.7273C22.5257 18.6982 17.8603 20.7078 10.8638 23.756C9.72766 24.2078 9.13251 24.6498 9.07834 25.082C8.98677 25.8124 9.90142 26.1 11.1469 26.4916C11.3164 26.5449 11.4919 26.6001 11.6719 26.6586C12.8973 27.0569 14.5457 27.5229 15.4026 27.5415C16.1799 27.5583 17.0475 27.2378 18.0053 26.5801C24.5423 22.1674 27.9168 19.937 28.1286 19.8889C28.2781 19.855 28.4852 19.8124 28.6255 19.9371C28.7659 20.0618 28.7521 20.298 28.7372 20.3614C28.6466 20.7477 25.0562 24.0856 23.1982 25.813C22.619 26.3515 22.2081 26.7334 22.1242 26.8207C21.936 27.0161 21.7443 27.2009 21.56 27.3786C20.4215 28.4761 19.5678 29.299 21.6072 30.643C22.5873 31.2888 23.3715 31.8229 24.1539 32.3557C25.0084 32.9376 25.8606 33.5179 26.9632 34.2407C27.2442 34.4249 27.5125 34.6162 27.7738 34.8025C28.7681 35.5113 29.6615 36.1482 30.7652 36.0467C31.4065 35.9876 32.0689 35.3846 32.4053 33.5861C33.2004 29.3357 34.7633 20.1263 35.1244 16.3313C35.1561 15.9989 35.1163 15.5733 35.0843 15.3865C35.0523 15.1998 34.9855 14.9336 34.7427 14.7366C34.4552 14.5033 34.0113 14.4541 33.8127 14.4576C32.91 14.4735 31.5251 14.955 24.8601 17.7273Z" fill="currentColor" />
  </g>
  <defs>
    <clipPath id="clip0_1485_2058">
      <rect width="48" height="48" fill="currentColor" transform="translate(0 0.00939941)" />
    </clipPath>
  </defs>
</svg>
