<svg width="32" height="32" viewBox="0 0 33 30" fill="none" xmlns="http://www.w3.org/2000/svg">
  <path d="M22.9 21.4001V5.7201C22.9 3.92793 22.9 3.03185 22.5512 2.34733C22.2444 1.74521 21.7549 1.25567 21.1528 0.948877C20.4683 0.600098 19.5722 0.600098 17.78 0.600098H5.62C3.82783 0.600098 2.93175 0.600098 2.24723 0.948877C1.64511 1.25567 1.15557 1.74521 0.848779 2.34733C0.5 3.03185 0.5 3.92793 0.5 5.7201V16.2801C0.5 18.0723 0.5 18.9683 0.848779 19.6529C1.15557 20.255 1.64511 20.7445 2.24723 21.0513C2.93175 21.4001 3.82783 21.4001 5.62 21.4001H22.9ZM22.9 21.4001H29.94C30.8361 21.4001 31.2841 21.4001 31.6264 21.2257C31.9274 21.0723 32.1722 20.8275 32.3256 20.5265C32.5 20.1842 32.5 19.7362 32.5 18.8401V14.4605C32.5 14.0691 32.5 13.8735 32.4558 13.6893C32.4166 13.5261 32.352 13.37 32.2642 13.2268C32.1653 13.0654 32.0269 12.927 31.7502 12.6503L28.4498 9.3499C28.1731 9.07318 28.0347 8.93482 27.8733 8.83587C27.7301 8.74815 27.574 8.6835 27.4108 8.6443C27.2266 8.6001 27.031 8.6001 26.6396 8.6001H22.9M11.7 25.4001C11.7 27.6092 9.90914 29.4001 7.7 29.4001C5.49086 29.4001 3.7 27.6092 3.7 25.4001C3.7 23.191 5.49086 21.4001 7.7 21.4001C9.90914 21.4001 11.7 23.191 11.7 25.4001ZM29.3 25.4001C29.3 27.6092 27.5091 29.4001 25.3 29.4001C23.0909 29.4001 21.3 27.6092 21.3 25.4001C21.3 23.191 23.0909 21.4001 25.3 21.4001C27.5091 21.4001 29.3 23.191 29.3 25.4001Z" stroke="currentColor" stroke-linecap="round" stroke-linejoin="round" />
</svg>
