<svg width="28" height="34" viewBox="0 0 28 34" fill="none" xmlns="http://www.w3.org/2000/svg">
    <path d="M9.08341 16.2486L12.3168 19.4819L19.5919 12.2068M26.8669 17.0569C26.8669 24.9923 18.2113 30.7638 15.0619 32.6011C14.704 32.8099 14.525 32.9143 14.2725 32.9685C14.0764 33.0105 13.7905 33.0105 13.5945 32.9685C13.3419 32.9143 13.163 32.8099 12.805 32.6011C9.65566 30.7638 1 24.9923 1 17.0569V9.32527C1 8.03271 1 7.38644 1.2114 6.8309C1.39815 6.34013 1.70161 5.90223 2.09556 5.55505C2.5415 5.16205 3.14663 4.93513 4.35689 4.48128L13.0252 1.23066C13.3613 1.10462 13.5294 1.0416 13.7023 1.01662C13.8556 0.99446 14.0113 0.99446 14.1647 1.01662C14.3376 1.0416 14.5056 1.10462 14.8417 1.23066L23.51 4.48128C24.7203 4.93513 25.3254 5.16205 25.7714 5.55505C26.1653 5.90223 26.4688 6.34013 26.6555 6.8309C26.8669 7.38644 26.8669 8.03271 26.8669 9.32527V17.0569Z" stroke="black" stroke-linecap="round" stroke-linejoin="round"/>
</svg>
