<svg width="123" height="30" viewBox="0 0 123 30" fill="none" xmlns="http://www.w3.org/2000/svg">
  <path d="M26.9544 0C18.6917 0 12.0531 6.68412 12.0531 14.8531C12.0531 23.0895 18.7574 29.7062 26.9526 29.7062C35.1479 29.7062 41.8582 23.0221 41.8582 14.8531C41.8582 6.68412 35.1496 0 26.9544 0ZM26.9544 20.3892C23.9067 20.3892 21.4016 17.8911 21.4016 14.8531C21.4016 11.8151 23.9067 9.317 26.9544 9.317C30.002 9.317 32.508 11.8151 32.508 14.8531C32.4397 17.8911 30.002 20.3892 26.9544 20.3892ZM12.0531 4.3155V25.9201H6.77337L0 4.3155H12.0531Z" fill="#BCBCBC" />
  <path d="M61.248 23L56.012 16.028L61.22 9.476H65.448L59.344 16.868L59.484 15.076L65.728 23H61.248ZM52.624 23V2.756H56.292V23H52.624ZM72.4441 23.28C71.2121 23.28 70.1014 22.972 69.1121 22.356C68.1227 21.74 67.3481 20.9 66.7881 19.836C66.2281 18.772 65.9481 17.5773 65.9481 16.252C65.9481 14.908 66.2281 13.704 66.7881 12.64C67.3481 11.576 68.1227 10.736 69.1121 10.12C70.1014 9.504 71.2121 9.196 72.4441 9.196C73.4147 9.196 74.2827 9.392 75.0481 9.784C75.8134 10.176 76.4201 10.7267 76.8681 11.436C77.3347 12.1267 77.5867 12.9107 77.6241 13.788V18.66C77.5867 19.556 77.3347 20.3493 76.8681 21.04C76.4201 21.7307 75.8134 22.2813 75.0481 22.692C74.2827 23.084 73.4147 23.28 72.4441 23.28ZM73.1161 19.892C74.1427 19.892 74.9734 19.556 75.6081 18.884C76.2427 18.1933 76.5601 17.3067 76.5601 16.224C76.5601 15.5147 76.4107 14.8893 76.1121 14.348C75.8321 13.788 75.4307 13.3587 74.9081 13.06C74.4041 12.7427 73.8067 12.584 73.1161 12.584C72.4441 12.584 71.8467 12.7427 71.3241 13.06C70.8201 13.3587 70.4187 13.788 70.1201 14.348C69.8401 14.8893 69.7001 15.5147 69.7001 16.224C69.7001 16.952 69.8401 17.596 70.1201 18.156C70.4187 18.6973 70.8201 19.1267 71.3241 19.444C71.8467 19.7427 72.4441 19.892 73.1161 19.892ZM76.3641 23V19.36L76.9521 16.056L76.3641 12.808V9.476H80.0041V23H76.3641ZM87.897 23.308C87.1317 23.308 86.3757 23.2053 85.629 23C84.901 22.7947 84.229 22.5147 83.613 22.16C82.997 21.7867 82.465 21.3387 82.017 20.816L84.201 18.604C84.6677 19.1267 85.209 19.5187 85.825 19.78C86.441 20.0413 87.1223 20.172 87.869 20.172C88.4663 20.172 88.9143 20.088 89.213 19.92C89.5303 19.752 89.689 19.5 89.689 19.164C89.689 18.7907 89.521 18.5013 89.185 18.296C88.8677 18.0907 88.4477 17.9227 87.925 17.792C87.4023 17.6427 86.8517 17.484 86.273 17.316C85.713 17.1293 85.1717 16.896 84.649 16.616C84.1263 16.3173 83.697 15.916 83.361 15.412C83.0437 14.8893 82.885 14.2173 82.885 13.396C82.885 12.5373 83.0903 11.7907 83.501 11.156C83.9303 10.5213 84.537 10.0267 85.321 9.672C86.105 9.31733 87.029 9.14 88.093 9.14C89.213 9.14 90.221 9.336 91.117 9.728C92.0317 10.12 92.7877 10.708 93.385 11.492L91.173 13.704C90.7623 13.2 90.2957 12.836 89.773 12.612C89.269 12.388 88.7183 12.276 88.121 12.276C87.5797 12.276 87.1597 12.36 86.861 12.528C86.581 12.696 86.441 12.9293 86.441 13.228C86.441 13.564 86.5997 13.8253 86.917 14.012C87.253 14.1987 87.6823 14.3667 88.205 14.516C88.7277 14.6467 89.269 14.8053 89.829 14.992C90.4077 15.16 90.949 15.4027 91.453 15.72C91.9757 16.0373 92.3957 16.4573 92.713 16.98C93.049 17.5027 93.217 18.1747 93.217 18.996C93.217 20.3213 92.741 21.376 91.789 22.16C90.837 22.9253 89.5397 23.308 87.897 23.308ZM100.338 23.308C99.5731 23.308 98.8171 23.2053 98.0704 23C97.3424 22.7947 96.6704 22.5147 96.0544 22.16C95.4384 21.7867 94.9064 21.3387 94.4584 20.816L96.6424 18.604C97.1091 19.1267 97.6504 19.5187 98.2664 19.78C98.8824 20.0413 99.5637 20.172 100.31 20.172C100.908 20.172 101.356 20.088 101.654 19.92C101.972 19.752 102.13 19.5 102.13 19.164C102.13 18.7907 101.962 18.5013 101.626 18.296C101.309 18.0907 100.889 17.9227 100.366 17.792C99.8437 17.6427 99.2931 17.484 98.7144 17.316C98.1544 17.1293 97.6131 16.896 97.0904 16.616C96.5677 16.3173 96.1384 15.916 95.8024 15.412C95.4851 14.8893 95.3264 14.2173 95.3264 13.396C95.3264 12.5373 95.5317 11.7907 95.9424 11.156C96.3717 10.5213 96.9784 10.0267 97.7624 9.672C98.5464 9.31733 99.4704 9.14 100.534 9.14C101.654 9.14 102.662 9.336 103.558 9.728C104.473 10.12 105.229 10.708 105.826 11.492L103.614 13.704C103.204 13.2 102.737 12.836 102.214 12.612C101.71 12.388 101.16 12.276 100.562 12.276C100.021 12.276 99.6011 12.36 99.3024 12.528C99.0224 12.696 98.8824 12.9293 98.8824 13.228C98.8824 13.564 99.0411 13.8253 99.3584 14.012C99.6944 14.1987 100.124 14.3667 100.646 14.516C101.169 14.6467 101.71 14.8053 102.27 14.992C102.849 15.16 103.39 15.4027 103.894 15.72C104.417 16.0373 104.837 16.4573 105.154 16.98C105.49 17.5027 105.658 18.1747 105.658 18.996C105.658 20.3213 105.182 21.376 104.23 22.16C103.278 22.9253 101.981 23.308 100.338 23.308ZM113.788 23.28C112.556 23.28 111.445 22.972 110.456 22.356C109.466 21.74 108.692 20.9 108.132 19.836C107.572 18.772 107.292 17.5773 107.292 16.252C107.292 14.908 107.572 13.704 108.132 12.64C108.692 11.576 109.466 10.736 110.456 10.12C111.445 9.504 112.556 9.196 113.788 9.196C114.758 9.196 115.626 9.392 116.392 9.784C117.157 10.176 117.764 10.7267 118.212 11.436C118.678 12.1267 118.93 12.9107 118.968 13.788V18.66C118.93 19.556 118.678 20.3493 118.212 21.04C117.764 21.7307 117.157 22.2813 116.392 22.692C115.626 23.084 114.758 23.28 113.788 23.28ZM114.46 19.892C115.486 19.892 116.317 19.556 116.952 18.884C117.586 18.1933 117.904 17.3067 117.904 16.224C117.904 15.5147 117.754 14.8893 117.456 14.348C117.176 13.788 116.774 13.3587 116.252 13.06C115.748 12.7427 115.15 12.584 114.46 12.584C113.788 12.584 113.19 12.7427 112.668 13.06C112.164 13.3587 111.762 13.788 111.464 14.348C111.184 14.8893 111.044 15.5147 111.044 16.224C111.044 16.952 111.184 17.596 111.464 18.156C111.762 18.6973 112.164 19.1267 112.668 19.444C113.19 19.7427 113.788 19.892 114.46 19.892ZM117.708 23V19.36L118.296 16.056L117.708 12.808V9.476H121.348V23H117.708Z" fill="#BCBCBC" />
</svg>
