<svg width="40" height="29" viewBox="0 0 40 29" fill="none" xmlns="http://www.w3.org/2000/svg">
  <path d="M25.7578 0C17.862 0 11.518 6.38739 11.518 14.1937C11.518 22.0645 17.9247 28.3875 25.7561 28.3875C33.5875 28.3875 40 22.0001 40 14.1937C40 6.38739 33.5892 0 25.7578 0ZM25.7578 19.4841C22.8454 19.4841 20.4515 17.0969 20.4515 14.1937C20.4515 11.2906 22.8454 8.90338 25.7578 8.90338C28.6701 8.90338 31.0648 11.2906 31.0648 14.1937C30.9996 17.0969 28.6701 19.4841 25.7578 19.4841ZM11.518 4.12392V24.7694H6.47268L0 4.12392H11.518Z" fill="#8B3FFD" />
</svg>
